<svg id="Layer_1" data-name="Layer 1" xmlns="http://www.w3.org/2000/svg" viewBox="0 0 1200 1200"><defs><style>.cls-1{fill:#6959e2;}.cls-2{fill:#fff;}.cls-3{fill:#1c1818;}.cls-4{fill:#e02d5c;}</style></defs><path class="cls-1" d="M600,100c-276.14,0-500,223.86-500,500s223.86,500,500,500,500-223.86,500-500S876.14,100,600,100Zm3.91,693c26.07.41,50.48,4.92,71.6,12.53Zm-79.1,12.41c21.12-7.56,45.51-12,71.54-12.41ZM460,918.77C481.66,953.42,536.18,978,600,978c63.07,0,117-24,139.22-58Z"/><circle class="cls-2" cx="600" cy="454" r="250"/><path class="cls-3" d="M750,885.5c0,12.19-3.83,23.83-10.78,34.49-22.17,34-76.15,58-139.22,58-63.82,0-118.34-24.58-140-59.23-6.46-10.32-10-21.54-10-33.27,0-34.19,30.08-64,74.81-80.06,21.12-7.56,45.51-12,71.54-12.41,1.21,0,2.43,0,3.65,0s2.61,0,3.91,0c26.07.41,50.48,4.92,71.6,12.53C720.07,821.6,750,851.39,750,885.5Z"/><path class="cls-1" d="M524.81,805.44c21.12-7.56,45.51-12,71.54-12.41Z"/><path class="cls-2" d="M596.43,795.41q0,1.43-.12,2.88L594.15,825a35.34,35.34,0,1,1-70.46-5.69l1.12-13.85c21.12-7.56,45.51-12,71.54-12.41C596.4,793.82,596.43,794.61,596.43,795.41Z"/><path class="cls-1" d="M603.91,793c26.07.41,50.48,4.92,71.6,12.53Z"/><path class="cls-2" d="M644.21,857a35.34,35.34,0,0,1-38.08-32.38L604,797.89q-.12-1.46-.12-2.88c0-.66,0-1.33.06-2,26.07.41,50.48,4.92,71.6,12.53l1.08,13.33A35.35,35.35,0,0,1,644.21,857Z"/><circle class="cls-3" cx="604" cy="454" r="120"/><path class="cls-4" d="M739.22,920c-22.17,34-76.15,58-139.22,58-63.82,0-118.34-24.58-140-59.23,13.55-13.26,35-24.3,61.3-31.69,21.83-6.12,47-9.75,73.93-10.06l3.77,0,4,0c26.94.34,52.16,4,74,10.16C704,894.8,725.81,906.25,739.22,920Z"/></svg>