<svg id="Layer_1" data-name="Layer 1" xmlns="http://www.w3.org/2000/svg" viewBox="0 0 1200 1200"><defs><style>.cls-1{fill:#db3737;}.cls-2{fill:#fff;}.cls-3{fill:#1c1818;}</style></defs><circle class="cls-1" cx="599" cy="602" r="500"/><circle class="cls-2" cx="754" cy="651" r="186"/><circle class="cls-2" cx="431" cy="646" r="186"/><polygon class="cls-3" points="595 557 927.03 501.5 939.93 400.9 600 497 595 557"/><polygon class="cls-3" points="597.57 557.14 265.55 501.64 252.64 401.04 600 497 597.57 557.14"/><circle class="cls-3" cx="479" cy="568" r="89"/><circle class="cls-3" cx="728" cy="568" r="89"/><path class="cls-3" d="M748,915c0,12.7-65.54,0-147,0s-148,12.7-148,0,66.54-37,148-37S748,902.3,748,915Z"/><path class="cls-3" d="M471,307c-52.48-9.26-28-95-25-102.27,20.23-49-15-16.73-66,66-34,55.1,23,100.27,71,113C502.25,397.32,556,322,471,307Z"/><path class="cls-3" d="M719.3,307.24c52.49-9.26,28-95,25-102.27-20.22-49,15-16.73,66,66,34,55.11-23,100.27-71,113C688.06,397.57,634.3,322.24,719.3,307.24Z"/></svg>