<svg id="Layer_1" data-name="Layer 1" xmlns="http://www.w3.org/2000/svg" viewBox="0 0 1200 1200"><defs><style>.cls-1{fill:#660e4d;}.cls-2{fill:#fff;}.cls-3{fill:#1c1818;}.cls-4{fill:none;}</style></defs><circle class="cls-1" cx="600" cy="600" r="500"/><circle class="cls-2" cx="483" cy="504" r="192"/><circle class="cls-3" cx="515" cy="504" r="87"/><path class="cls-2" d="M913.29,541a142.37,142.37,0,0,1-265.8-102.11c.38-1,.77-2,1.18-3l221.62-56.41q4.63,3.75,8.87,7.85A142.39,142.39,0,0,1,913.29,541Z"/><polyline class="cls-4" points="549.28 462.92 629.07 422.37 866.79 301.57 919.58 274.74"/><circle class="cls-3" cx="780" cy="506" r="55"/><path class="cls-3" d="M936.5,854.25C936.5,869,792.25,831,614,831s-323,38-323,23.25S435.75,817,614,817,936.5,839.48,936.5,854.25Z"/><path class="cls-2" d="M871.27,821.28l6.48,16.18-42.87-6.16L792,825.15h0a265.08,265.08,0,0,0,27.83-70.31L821,750l23.77,27.64A155.61,155.61,0,0,1,871.27,821.28Z"/><path class="cls-2" d="M348.81,821.7l-6.48,16.18,42.87-6.16,42.86-6.15h0a265.08,265.08,0,0,1-27.83-70.31l-1.15-4.84-23.77,27.64A156.08,156.08,0,0,0,348.81,821.7Z"/></svg>