<svg id="Layer_1" data-name="Layer 1" xmlns="http://www.w3.org/2000/svg" viewBox="0 0 1200 1200"><defs><style>.cls-1{fill:#285870;}.cls-2{fill:#1c1818;}.cls-3{fill:#fff;}.cls-4{fill:#e02d5c;}</style></defs><path class="cls-1" d="M610,100c-276.14,0-500,223.86-500,500s223.86,500,500,500,500-223.86,500-500S886.14,100,610,100ZM435.41,835.09a172.06,172.06,0,0,0,329.18,0Zm36-164.28a171.59,171.59,0,0,1,122.24-57.69Zm137.88-57.57A171.65,171.65,0,0,1,731.37,674Z"/><path class="cls-2" d="M772,785A172,172,0,1,1,593.61,613.12q3.18-.12,6.39-.12c3.1,0,6.19.08,9.25.24A172,172,0,0,1,772,785Z"/><path class="cls-1" d="M471.37,670.81a171.59,171.59,0,0,1,122.24-57.69Z"/><path class="cls-3" d="M593.61,613.12l-1.77,46.55a61,61,0,0,1-120.47,11.14A171.59,171.59,0,0,1,593.61,613.12Z"/><path class="cls-1" d="M609.25,613.24A171.65,171.65,0,0,1,731.37,674Z"/><path class="cls-3" d="M731.37,674a61,61,0,0,1-119.54-13.54l-2.58-47.2A171.65,171.65,0,0,1,731.37,674Z"/><path class="cls-1" d="M435.41,835.09a172.06,172.06,0,0,0,329.18,0Z"/><path class="cls-4" d="M764.59,835.09a172.06,172.06,0,0,1-329.18,0,156.8,156.8,0,0,1,23.25-25.76c33.18-29.58,80.93-48.68,134.32-50.23q3.49-.11,7-.1,5.12,0,10.16.21c53.77,2.26,101.57,22.32,134.19,52.88A154.57,154.57,0,0,1,764.59,835.09Z"/><circle class="cls-3" cx="600.5" cy="359" r="137"/><circle class="cls-3" cx="379.6" cy="450.56" r="111.02"/><circle class="cls-2" cx="600.5" cy="390" r="70"/><circle class="cls-3" cx="822.62" cy="450.56" r="111.02"/><circle class="cls-2" cx="823" cy="470" r="56"/><circle class="cls-2" cx="379" cy="470" r="56"/></svg>