<svg id="Layer_1" data-name="Layer 1" xmlns="http://www.w3.org/2000/svg" viewBox="0 0 1200 1200"><defs><style>.cls-1{fill:#aa69f7;}.cls-2{fill:#d3410f;}.cls-3{fill:#fff;}.cls-4{fill:#1c1818;}</style></defs><path class="cls-1" d="M593.91,851.84,512.25,873l82.6.41,4,0,87.85.44ZM600,100c-276.14,0-500,223.86-500,500a497.7,497.7,0,0,0,80,271.35q2.78,4.27,5.62,8.49C275.46,1012.68,427.53,1100,600,1100c174.33,0,327.82-89.22,417.3-224.49A497.6,497.6,0,0,0,1100,600C1100,323.86,876.14,100,600,100ZM321.8,872.05q.12-2.81.39-5.7c4.05-43.17,27.16-76.3,51.63-74,24,2.25,52.13,40.68,37.8,80.16Zm506.26,2.52c-10.84-36.25,12-71.69,34.32-75.47,24.23-4.1,53.93,26.71,57,70q.2,2.75.15,6Z"/><path class="cls-2" d="M1017.3,875.51C927.82,1010.78,774.33,1100,600,1100c-172.47,0-324.54-87.32-414.41-220.16q-2.85-4.22-5.62-8.49l141.83.7,89.82.45,100.63.5,82.6.41,4,0,87.85.44,141.4.7,91.46.45Z"/><path class="cls-1" d="M411.62,872.5l-89.82-.45q.12-2.81.39-5.7c4.05-43.17,27.16-76.3,51.63-74C397.85,794.59,426,833,411.62,872.5Z"/><path class="cls-3" d="M411.62,872.5c-.25.72-.52,1.43-.81,2.15C395,914,380,961.72,359.18,948.66c-19.28-12.09-39.16-36.8-37.38-76.61Z"/><polygon class="cls-1" points="593.91 851.84 594.85 873.41 512.25 873 593.91 851.84"/><path class="cls-3" d="M600,890.53v1c0,43.35-21.76,87.83-44.5,78.5C536,962,511,934.85,511,891.5a135.31,135.31,0,0,1,1.25-18.5l82.6.41,4,0A135.26,135.26,0,0,1,600,890.53Z"/><polygon class="cls-1" points="593.91 851.84 594.85 873.41 598.81 873.43 593.91 851.84"/><path class="cls-3" d="M685.62,956.9c-23.59,4-38.81-22.45-55.62-66.37-.46-1.18-.91-2.38-1.37-3.59a78.36,78.36,0,0,1-3.78-13.53l4,0,87.85.44C723.23,915.87,709.52,952.85,685.62,956.9Z"/><path class="cls-1" d="M919.52,875l-91.46-.45c-10.84-36.25,12-71.69,34.32-75.47,24.23-4.1,53.93,26.71,57,70Q919.57,871.81,919.52,875Z"/><path class="cls-4" d="M617.09,388.44c14.53,30.27,142.24-.82,159.27-73.27s-48.1-131.64-81.1-137.83c-47.85-9,113.5,45-40.74,141.18C591.37,357.89,575.18,301.11,617.09,388.44Z"/><circle class="cls-2" cx="769.5" cy="481.5" r="169.5"/><path class="cls-4" d="M517.59,483.36c3.91,39.55-144.42,86.62-206.18,23.8s-32.28-162.77-2.71-189.32c42.89-38.51-87.14,115.35,128,117.79C524.83,436.63,506.3,369.23,517.59,483.36Z"/><path class="cls-3" d="M919.52,875c-.37,24.6-11.47,67.29-30.9,78.88-18.62,11.1-40.62-34.9-57-70a67.75,67.75,0,0,1-3.57-9.37Z"/><circle class="cls-3" cx="464" cy="640" r="148"/><circle class="cls-3" cx="768" cy="492" r="148"/><circle class="cls-4" cx="738" cy="503" r="68"/><circle class="cls-4" cx="464" cy="640" r="68"/></svg>