<svg id="Layer_1" data-name="Layer 1" xmlns="http://www.w3.org/2000/svg" viewBox="0 0 1200 1200"><defs><style>.cls-1{fill:#44473d;}.cls-2{fill:#fff;}.cls-3{fill:#1c1818;}.cls-4{fill:#e02d5c;}</style></defs><path class="cls-1" d="M594,100C317.86,100,94,323.86,94,600c0,196.7,113.58,366.87,278.74,448.5q-.74-7.43-.74-15c0-31.64,9.82-61.42,27.13-87.45,62.23,26,135.52,43,205.87,43a494.62,494.62,0,0,0,196.08-41.11C817.64,973.47,827,1002.6,827,1033.5q0,4.61-.28,9.15C985.65,958.92,1094,792.11,1094,600,1094,323.86,870.14,100,594,100Zm96.28,691.92c39.24-9.42,75-22.11,106.67-33.3ZM397.54,773.27c31.34,10.53,67.68,21.25,109.61,27.43Z"/><circle class="cls-2" cx="456.08" cy="515.34" r="158.7"/><circle class="cls-2" cx="731.9" cy="515.34" r="141.73"/><circle class="cls-2" cx="600.48" cy="328.53" r="91.53"/><circle class="cls-3" cx="441.65" cy="482.24" r="72.99"/><circle class="cls-3" cx="753.96" cy="550.98" r="68.74"/><circle class="cls-3" cx="608.29" cy="309.52" r="39.59"/><path class="cls-3" d="M801.08,947.89A494.62,494.62,0,0,1,605,989c-70.35,0-143.64-16.94-205.87-43C291.35,901,216.73,828.72,248,770c25.29-47.5,72.2-22.7,149.54,3.27,31.34,10.53,67.68,21.25,109.61,27.43A490.09,490.09,0,0,0,579,806c39.46,0,76.71-5.77,111.28-14.08,39.24-9.42,75-22.11,106.67-33.3,76.28-27,128.51-45.35,147,11.38C964.66,833.24,900.1,904.34,801.08,947.89Z"/><path class="cls-1" d="M827,1033.5q0,4.61-.28,9.15a500.95,500.95,0,0,1-454,5.85q-.74-7.43-.74-15c0-31.64,9.82-61.42,27.13-87.45,62.23,26,135.52,43,205.87,43a494.62,494.62,0,0,0,196.08-41.11C817.64,973.47,827,1002.6,827,1033.5Z"/><path class="cls-4" d="M801.08,947.89A494.62,494.62,0,0,1,605,989c-70.35,0-143.64-16.94-205.87-43,38.42-57.78,113.74-97,200.37-97C687,849,763,889.1,801.08,947.89Z"/><path class="cls-1" d="M397.54,773.27c31.34,10.53,67.68,21.25,109.61,27.43Z"/><path class="cls-2" d="M507.15,800.7l-14.09,28.17c-13.58,27.14-41.77,30.44-73.91,24.48-24-22.14-38.32-46.68-24.74-73.83l3.13-6.25C428.88,783.8,465.22,794.52,507.15,800.7Z"/><path class="cls-1" d="M690.28,791.92c39.24-9.42,75-22.11,106.67-33.3Z"/><path class="cls-2" d="M781.46,850.94c-32.71,4.81-61.9-.47-77.4-31.47l-13.78-27.55c39.24-9.42,75-22.11,106.67-33.3l5.76,11.51C818.22,801.13,804.94,827.64,781.46,850.94Z"/></svg>