<svg id="Layer_1" data-name="Layer 1" xmlns="http://www.w3.org/2000/svg" viewBox="0 0 1200 1200"><defs><style>.cls-1{fill:none;}.cls-2{fill:#0d5ebf;}.cls-3{fill:#fff;}.cls-4{fill:#1c1818;}.cls-5{fill:#4175bf;}.cls-6{fill:#aa69f7;}.cls-7{fill:#d3410f;}.cls-8{fill:#0fb7ce;}</style></defs><path class="cls-1" d="M209,911.61h0l0,0,.08.1.12.16q12.51,15.65,26.24,30.26.25.29.54.57a500.46,500.46,0,0,0,152.51,110.43c.61.3,1.23.6,1.85.88A498.09,498.09,0,0,0,600,1100c154.61,0,292.83-70.18,384.53-180.42l.2-.24.55-.65c1.71-2.05,3.41-4.15,5.09-6.23l.17-.22.16-.2.13-.17.18-.23,0,0H209ZM892.44,409.52,921,353.39l-62.91,3.3-49.06,2.58a276.32,276.32,0,0,1,56.56,102.91Zm-513.16,3.25L345,465.6l-7.18-14.1A276.62,276.62,0,0,0,323,541c0,153,124,277,277,277S877,694,877,541a276.77,276.77,0,0,0-11.38-78.82l-1.77,3.48-34.33-52.83L795.2,360l13.86-.73A276.59,276.59,0,0,0,646,267.8l7,12.2H527l4.28-7.41a277,277,0,0,0-139.9,86.18l22.22,1.17ZM646,267.8,621.5,225.44,590,170.88l-31.5,54.56-27.22,47.15A279.44,279.44,0,0,1,646,267.8ZM337.78,451.5a276.6,276.6,0,0,1,53.6-92.73l-40.69-2.13-62.92-3.31,28.59,56.14Z"/><path class="cls-2" d="M600,100c-276.14,0-500,223.86-500,500A497.85,497.85,0,0,0,209,911.61H991A497.85,497.85,0,0,0,1100,600C1100,323.86,876.14,100,600,100ZM892.44,409.52l-26.82,52.66A276.77,276.77,0,0,1,877,541c0,153-124,277-277,277S323,694,323,541a276.62,276.62,0,0,1,14.78-89.5l-21.42-42-28.59-56.14,62.92,3.31,40.69,2.13a277,277,0,0,1,139.9-86.18l27.22-47.15L590,170.88l31.5,54.56L646,267.8a276.59,276.59,0,0,1,163.1,91.47l49.06-2.58,62.91-3.3Z"/><path class="cls-3" d="M877,541c0,153-124,277-277,277S323,694,323,541a276.62,276.62,0,0,1,14.78-89.5L345,465.6l34.32-52.83,34.32-52.83-22.22-1.17a277,277,0,0,1,139.9-86.18L527,280H653l-7-12.2a276.59,276.59,0,0,1,163.1,91.47L795.2,360l34.32,52.83,34.33,52.83,1.77-3.48A276.77,276.77,0,0,1,877,541Z"/><circle class="cls-4" cx="600" cy="564" r="140"/><path class="cls-5" d="M991,911.61h0l0,0-.18.23-.13.17-.16.2-.17.22c-.86,1.11-2.55,3.25-5.09,6.23l-.55.65-.2.24C954.3,955.11,819.62,1097.38,600,1100a473.25,473.25,0,0,1-209.67-46c-.62-.28-1.24-.58-1.85-.88C316.33,1018.69,264.81,972.78,236,942.73q-.28-.29-.54-.57c-15.92-16.63-24.78-28.28-26.24-30.26l-.12-.16-.08-.1,0,0H991Z"/><path class="cls-3" d="M653,280H527l4.28-7.41A279.44,279.44,0,0,1,646,267.8Z"/><path class="cls-6" d="M646,267.8a279.44,279.44,0,0,0-114.68,4.79l27.22-47.15L590,170.88l31.5,54.56Z"/><path class="cls-3" d="M865.62,462.18l-1.77,3.48-34.33-52.83L795.2,360l13.86-.73A276.32,276.32,0,0,1,865.62,462.18Z"/><path class="cls-7" d="M921,353.39l-28.59,56.13-26.82,52.66a276.32,276.32,0,0,0-56.56-102.91l49.06-2.58Z"/><path class="cls-3" d="M413.6,359.94l-34.32,52.83L345,465.6l-7.18-14.1a276.6,276.6,0,0,1,53.6-92.73Z"/><path class="cls-8" d="M391.38,358.77a276.6,276.6,0,0,0-53.6,92.73l-21.42-42-28.59-56.14,62.92,3.31Z"/><path class="cls-3" d="M455,911.61v6.18A37.21,37.21,0,0,1,417.79,955H378.21A37.21,37.21,0,0,1,341,917.79v-6.18Z"/><path class="cls-3" d="M884,911.61v6.18A37.21,37.21,0,0,1,846.79,955H807.21A37.21,37.21,0,0,1,770,917.79v-6.18Z"/><path class="cls-3" d="M600,911.61V953.3a46.7,46.7,0,0,1-46.7,46.7H532.7A46.7,46.7,0,0,1,486,953.3V911.61Z"/><path class="cls-3" d="M734,911.61V953.3a46.7,46.7,0,0,1-46.7,46.7H666.7A46.7,46.7,0,0,1,620,953.3V911.61Z"/></svg>