<svg id="Layer_1" data-name="Layer 1" xmlns="http://www.w3.org/2000/svg" viewBox="0 0 1200 1200"><defs><style>.cls-1{fill:#0fb7ce;}.cls-2{fill:#fff;}.cls-3{fill:#1c1818;}.cls-4{fill:#e02d5c;}</style></defs><path class="cls-1" d="M600,100c-276.14,0-500,223.86-500,500,0,260.92,199.87,475.17,454.85,498L552,963.87l-5.44-1.46L504.78,951.2l4.15-4.15A438,438,0,0,0,552,961.17l4.4,1.16c1.49.38,3,.76,4.47,1.12,1,.24,1.91.47,2.87.69l3.3.77h0l1,.23q1.16.27,2.31.51l2.62.56c.67.15,1.35.29,2,.42l1.67.34,1.89.37,2.29.43c.87.17,1.74.33,2.62.48l.8.14,1.78.31,1.1.19.49.08,2.55.41c1.24.2,2.49.39,3.73.57.72.11,1.43.21,2.15.3l.21,0,.42.06q2.88.4,5.74.73l2.89.33c1.27.14,2.55.27,3.82.39l1.2.11c1.21.12,2.42.22,3.63.31l1.43.11,4.42.3,1.89.1,1.21.06.72,0,.6,0,2.56.09,2.46.07,3,0,2.91,0c2,0,3.91,0,5.85-.07q1.5,0,3-.09l3-.11c1.27-.06,2.55-.12,3.82-.2l2.1-.12c2.32-.15,4.65-.32,7-.52l2.12-.19,2.56-.25,2.85-.3c1.1-.12,2.2-.24,3.3-.38l1.66-.2.82-.1.83-.11,1.87-.25q1.8-.24,3.6-.51l3.6-.55,2.1-.34,2.1-.35,4.21-.75q1.75-.31,3.51-.66c1-.19,2-.39,3-.6l1.62-.33,1.47-.31,3.09-.67c1.74-.39,3.49-.79,5.23-1.2,1.16-.27,2.33-.56,3.49-.85l3-.74,2.86-.75,1.56-.41,1.83-.5,1.07-.3c1.48-.41,3-.83,4.45-1.26l2.75-.81,1.67-.51h0l.53-.16.71-.22,2.28-.71.9-.28,2.52-.81,2.38-.78q4.89-1.61,9.75-3.37,2.31-.83,4.6-1.68t4.5-1.71l.73-.28c1.54-.6,3.07-1.2,4.61-1.82h0q2.4-1,4.77-2t5-2.12l2.13-.93,2.33-1Q782,939,784,938l1-.47.22-.11q1.9-.87,3.78-1.77l.21-.1q2.28-1.08,4.54-2.19t4.58-2.28l2.28-1.16c.76-.38,1.51-.78,2.27-1.17l4.51-2.38,4.47-2.43,2.54-1.41L850.17,1033C999.53,946.53,1100,785,1100,600,1100,323.86,876.14,100,600,100ZM717.81,778.31l-5.11-3.42-36-24.07,38.85-19.13,38.84-19.14L752,748.77A272.23,272.23,0,0,1,717.81,778.31Zm72.6-73-16.06-6.83,34.6-26,34.61-26,.59,4.85C825.92,662.22,809.21,682.55,790.41,705.26ZM495,784.83l-2.46-37.73,38.83,19.16,38.83,19.16-29.83,19.93A255.52,255.52,0,0,1,495,784.83ZM438.52,919.57l-35.71-24.5-35.7-24.51,5.08-2.43A491.86,491.86,0,0,0,439,913.74Zm480.64-72.4-28.42,32.67-3.23-9.39c20.22-18.3,37.18-38,49.74-58l10.33,2Z"/><circle class="cls-2" cx="430" cy="504" r="170"/><circle class="cls-2" cx="779" cy="504" r="131"/><circle class="cls-3" cx="500" cy="504" r="70"/><circle class="cls-3" cx="740" cy="504" r="70"/><path class="cls-3" d="M937.25,812.49c-12.56,20-29.52,39.66-49.74,58a400.68,400.68,0,0,1-73.06,52.1L811.91,924l-4.47,2.43-4.51,2.38c-.76.39-1.51.79-2.27,1.17l-2.28,1.16q-2.28,1.15-4.58,2.28t-4.54,2.19l-.21.1q-1.87.9-3.78,1.77l-.22.11-1,.47q-2.07,1-4.17,1.89l-2.33,1-2.13.93q-2.49,1.08-5,2.12t-4.77,2h0c-1.54.62-3.07,1.22-4.61,1.82l-.73.28q-2.25.87-4.5,1.71t-4.6,1.68q-4.86,1.75-9.75,3.37l-2.38.78-2.52.81-.9.28-2.28.71-.71.22-.53.16h0l-1.67.51-2.75.81c-1.48.43-3,.85-4.45,1.26l-1.07.3-1.83.5-1.56.41-2.86.75-3,.74c-1.16.29-2.33.58-3.49.85-1.74.41-3.49.81-5.23,1.2l-3.09.67-1.47.31-1.62.33c-1,.21-2,.41-3,.6q-1.75.35-3.51.66l-4.21.75-2.1.35-2.1.34-3.6.55q-1.8.27-3.6.51l-1.87.25-.83.11-.82.1-1.66.2c-1.1.14-2.2.26-3.3.38l-2.85.3-2.56.25-2.12.19c-2.32.2-4.65.37-7,.52l-2.1.12c-1.27.08-2.55.14-3.82.2l-3,.11q-1.5.06-3,.09c-1.94,0-3.89.07-5.85.07l-2.91,0-3,0-2.46-.07-2.56-.09-.6,0-.72,0-1.21-.06-1.89-.1-4.42-.3-1.43-.11c-1.21-.09-2.42-.19-3.63-.31l-1.2-.11c-1.27-.12-2.55-.25-3.82-.39l-2.89-.33q-2.87-.33-5.74-.73l-.42-.06-.21,0c-.72-.09-1.43-.19-2.15-.3-1.24-.18-2.49-.37-3.73-.57l-2.55-.41-.49-.08-1.1-.19-1.78-.31-.8-.14c-.88-.15-1.75-.31-2.62-.48l-2.29-.43-1.89-.37-1.67-.34c-.67-.13-1.35-.27-2-.42l-2.62-.56q-1.15-.24-2.31-.51l-1-.23h0l-3.3-.77c-1-.22-1.91-.45-2.87-.69-1.49-.36-3-.74-4.47-1.12l-4.4-1.16a438,438,0,0,1-43.05-14.12,513.27,513.27,0,0,1-70-33.31,491.86,491.86,0,0,1-66.78-45.61c-58-47.38-89.72-99.18-65.09-128.47,59.38-70.62,108.48.28,187.85,45.17a255.52,255.52,0,0,0,45.37,20.52A195.06,195.06,0,0,0,628,813.94c36.34-4.6,65.44-18.1,89.84-35.63A272.23,272.23,0,0,0,752,748.77c14.19-14.3,26.7-29.36,38.41-43.5h0c18.8-22.71,35.51-43,53.74-54,21.34-12.88,44.76-13,76.06,10.81C972.91,702.1,971.06,758.6,937.25,812.49Z"/><path class="cls-1" d="M850.17,1033A497.73,497.73,0,0,1,600,1100q-22.83,0-45.15-2L552,963.87l36.38,9.76-1.27-4.74.49.08,2.55.41c1.24.2,2.49.39,3.73.57.72.11,1.43.21,2.15.3l.21,0,.42.06q2.88.4,5.74.73l2.89.33c1.27.14,2.55.27,3.82.39l1.2.11c1.21.12,2.42.22,3.63.31l1.43.11,4.42.3,1.89.1,1.21.06.72,0,.6,0,2.56.09,2.46.07,3,0,2.91,0c2,0,3.91,0,5.85-.07q1.5,0,3-.09l3-.11c1.27-.06,2.55-.12,3.82-.2l2.1-.12c2.32-.15,4.65-.32,7-.52l2.12-.19,2.56-.25,2.85-.3c1.1-.12,2.2-.24,3.3-.38l1.66-.2.82-.1.83-.11,1.87-.25q1.8-.24,3.6-.51l3.6-.55,2.1-.34,2.1-.35,4.21-.75q1.75-.31,3.51-.66c1-.19,2-.39,3-.6l1.62-.33,1.47-.31,3.09-.67c1.74-.39,3.49-.79,5.23-1.2,1.16-.27,2.33-.56,3.49-.85l3-.74,2.86-.75,1.56-.41,1.83-.5,1.07-.3c1.48-.41,3-.83,4.45-1.26l2.75-.81,1.67-.51h0l.53-.16.71-.22,2.28-.71.9-.28-.51,6.34,39.1-18.6,39.1-18.61-2.3-1.58,2.54-1.41Z"/><path class="cls-4" d="M814.45,922.55,811.91,924l-4.47,2.43-4.51,2.38c-.76.39-1.51.79-2.27,1.17l-2.28,1.16q-2.28,1.15-4.58,2.28t-4.54,2.19l-.21.1q-1.87.9-3.78,1.77l-.22.11-1,.47q-2.07,1-4.17,1.89l-2.33,1-2.13.93q-2.49,1.08-5,2.12t-4.77,2h0c-1.54.62-3.07,1.22-4.61,1.82l-.73.28q-2.25.87-4.5,1.71t-4.6,1.68q-4.86,1.75-9.75,3.37l-2.38.78-2.52.81-.9.28-2.28.71-.71.22-.53.16h0l-1.67.51-2.75.81c-1.48.43-3,.85-4.45,1.26l-1.07.3-1.83.5-1.56.41-2.86.75-3,.74c-1.16.29-2.33.58-3.49.85-1.74.41-3.49.81-5.23,1.2l-3.09.67-1.47.31-1.62.33c-1,.21-2,.41-3,.6q-1.75.35-3.51.66l-4.21.75-2.1.35-2.1.34-3.6.55q-1.8.27-3.6.51l-1.87.25-.83.11-.82.1-1.66.2c-1.1.14-2.2.26-3.3.38l-2.85.3-2.56.25-2.12.19c-2.32.2-4.65.37-7,.52l-2.1.12c-1.27.08-2.55.14-3.82.2l-3,.11q-1.5.06-3,.09c-1.94,0-3.89.07-5.85.07l-2.91,0-3,0-2.46-.07-2.56-.09-.6,0-.72,0-1.21-.06-1.89-.1-4.42-.3-1.43-.11c-1.21-.09-2.42-.19-3.63-.31l-1.2-.11c-1.27-.12-2.55-.25-3.82-.39l-2.89-.33q-2.87-.33-5.74-.73l-.42-.06-.21,0c-.72-.09-1.43-.19-2.15-.3-1.24-.18-2.49-.37-3.73-.57l-2.55-.41-.49-.08-1.1-.19-1.78-.31-.8-.14c-.88-.15-1.75-.31-2.62-.48l-2.29-.43-1.89-.37-1.67-.34c-.67-.13-1.35-.27-2-.42l-2.62-.56q-1.15-.24-2.31-.51l-1-.23h0l-3.3-.77c-1-.22-1.91-.45-2.87-.69-1.49-.36-3-.74-4.47-1.12l-4.4-1.16a181.48,181.48,0,0,1,22.45-39.78h0C595.67,892.62,624.84,869,656.56,850,710,818.13,775,859.12,814.45,922.55Z"/><path class="cls-1" d="M588.42,973.63,552,963.87l-.06-2.7,4.4,1.16c1.49.38,3,.76,4.47,1.12,1,.24,1.91.47,2.87.69l3.3.77h0l1,.23q1.16.27,2.31.51c.87.2,1.75.38,2.62.56.67.15,1.35.29,2,.42l1.67.34,1.89.37,2.29.43c.87.17,1.74.33,2.62.48l.8.14,1.78.31,1.1.19Z"/><path class="cls-1" d="M552,963.87l-5.44-1.46L504.78,951.2l4.15-4.15A438,438,0,0,0,552,961.17Z"/><path class="cls-2" d="M587.15,968.89l-1.1-.19-1.78-.31-.8-.14c-.88-.15-1.75-.31-2.62-.48l-2.29-.43-1.89-.37-1.67-.34c-.67-.13-1.35-.27-2-.42l-2.62-.56q-1.15-.24-2.31-.51l-1-.23h0l-3.3-.77c-1-.22-1.91-.45-2.87-.69-1.49-.36-3-.74-4.47-1.12l-4.4-1.16a438,438,0,0,1-43.05-14.12l26.47-26.46L566,890l8.4,31.41h0l2.79,10.41Z"/><path class="cls-1" d="M814.21,925.54l-39.1,18.61L736,962.75l.51-6.34,2.52-.81c.8-.26,1.59-.51,2.38-.78q4.89-1.61,9.75-3.37c1.54-.54,3.07-1.11,4.6-1.68s3-1.13,4.5-1.71l.73-.28c1.54-.6,3.07-1.2,4.61-1.82h0c1.59-.64,3.19-1.3,4.77-2s3.33-1.4,5-2.12l2.13-.93,2.33-1Q782,939,784,938c.35-.15.7-.3,1-.47l.22-.11q1.9-.87,3.78-1.77l.21-.1q2.28-1.08,4.54-2.19t4.58-2.28l2.28-1.16c.76-.38,1.51-.78,2.27-1.17,1.51-.78,3-1.58,4.51-2.38l4.47-2.43Z"/><path class="cls-2" d="M811.91,924l-4.47,2.43-4.51,2.38c-.76.39-1.51.79-2.27,1.17l-2.28,1.16q-2.28,1.15-4.58,2.28t-4.54,2.19l-.21.1q-1.87.9-3.78,1.77l-.22.11-1,.47q-2.07,1-4.17,1.89l-2.33,1-2.13.93q-2.49,1.08-5,2.12t-4.77,2h0c-1.54.62-3.07,1.22-4.61,1.82l-.73.28q-2.25.87-4.5,1.71t-4.6,1.68q-4.86,1.75-9.75,3.37l-2.38.78-2.52.81,2.93-36.82,3.44-43.17L778.55,901Z"/><path class="cls-1" d="M439,913.74l-.45,5.83-35.71-24.5-35.7-24.51,5.08-2.43A491.86,491.86,0,0,0,439,913.74Z"/><path class="cls-2" d="M445.26,833.23l-3.37,43.17L439,913.74a491.86,491.86,0,0,1-66.78-45.61l34-16.23Z"/><path class="cls-1" d="M947.58,814.5l-28.42,32.67-28.42,32.67-3.23-9.39c20.22-18.3,37.18-38,49.74-58Z"/><path class="cls-2" d="M937.25,812.49c-12.56,20-29.52,39.66-49.74,58l-10.85-31.56-14.08-40.95,42.5,8.28Z"/><path class="cls-1" d="M844.15,651.22c-18.23,11-34.94,31.33-53.74,54l-16.06-6.83,34.6-26,34.61-26Z"/><path class="cls-2" d="M854,732.34l-39.84-17-23.78-10.12h0c18.8-22.71,35.51-43,53.74-54l4.65,38.14Z"/><path class="cls-1" d="M754.39,712.55,752,748.77a272.23,272.23,0,0,1-34.19,29.54l-5.11-3.42-36-24.07,38.85-19.13Z"/><path class="cls-2" d="M752,748.77l-.46,7L748.69,799l-30.88-20.65A272.23,272.23,0,0,0,752,748.77Z"/><path class="cls-1" d="M570.15,785.42l-29.83,19.93A255.52,255.52,0,0,1,495,784.83l-2.46-37.73,38.83,19.16Z"/><path class="cls-2" d="M540.32,805.35l-6.17,4.12-36,24-2.83-43.21-.36-5.48A255.52,255.52,0,0,0,540.32,805.35Z"/></svg>