<svg id="Layer_1" data-name="Layer 1" xmlns="http://www.w3.org/2000/svg" viewBox="0 0 1200 1200"><defs><style>.weeha-cls-1{fill:#22d1d1;}.weeha-cls-2{fill:#fff;}.weeha-cls-3{fill:#1c1818;}.weeha-cls-4{fill:#e02d5c;}</style></defs><path class="weeha-cls-1" d="M600,100c-276.14,0-500,223.86-500,500s223.86,500,500,500,500-223.86,500-500S876.14,100,600,100ZM405.46,776.65l-4.63-11.56,42.87,6.16,42.86,6.15c-1.33,2.33-2.63,4.67-3.87,7C454.32,781.48,427.78,778.39,405.46,776.65Zm312.33.33,42.86-6.16,42.87-6.15-2.8,7c-22.28,1.69-50,5.89-80.3,10C719.56,780.12,718.69,778.54,717.79,777ZM664,1030c-23.74,0-44.45-10.29-55.5-25.58-11,15.29-31.76,25.58-55.5,25.58-35.35,0-64-22.83-64-51,0-1.16.05-2.32.15-3.46C525.1,991.19,563.63,1000,600,1000c1.87,0,3.74,0,5.62-.07a47.44,47.44,0,0,0,2.88,4.49,46.78,46.78,0,0,0,3-4.71c38.74-1.93,78.76-13.47,114.84-32.29A41.09,41.09,0,0,1,728,979C728,1007.17,699.35,1030,664,1030Z"/><circle class="weeha-cls-2" cx="444" cy="515" r="173"/><circle class="weeha-cls-2" cx="749" cy="516" r="173"/><path class="weeha-cls-3" d="M854,788c0,76.23-56.1,142.12-127.66,179.42-36.08,18.82-76.1,30.36-114.84,32.29-2,.1-3.93.17-5.88.22s-3.75.07-5.62.07c-36.37,0-74.9-8.81-110.85-24.46C408,940.24,340,870.11,340,788c0-13.31,26.19-14.42,65.46-11.35,22.32,1.74,48.86,4.83,77.23,7.78,37.76,3.94,78.75,7.65,117.31,7.65,40.17,0,82.29-5.16,120.42-10.38,30.27-4.15,58-8.35,80.3-10C833.18,769.18,854,772,854,788Z"/><path class="weeha-cls-1" d="M608.5,1004.42c-11,15.29-31.76,25.58-55.5,25.58-35.35,0-64-22.83-64-51,0-1.16.05-2.32.15-3.46C525.1,991.19,563.63,1000,600,1000c1.87,0,3.74,0,5.62-.07A47.44,47.44,0,0,0,608.5,1004.42Z"/><path class="weeha-cls-4" d="M617,979a42.19,42.19,0,0,1-5.5,20.71,46.78,46.78,0,0,1-3,4.71,47.44,47.44,0,0,1-2.88-4.49c-1.88.05-3.75.07-5.62.07-36.37,0-74.9-8.81-110.85-24.46C491.38,949,519.11,928,553,928c23.74,0,44.45,10.29,55.5,25.58A43.16,43.16,0,0,1,617,979Z"/><path class="weeha-cls-1" d="M728,979c0,28.17-28.65,51-64,51-23.74,0-44.45-10.29-55.5-25.58a46.78,46.78,0,0,0,3-4.71c38.74-1.93,78.76-13.47,114.84-32.29A41.09,41.09,0,0,1,728,979Z"/><path class="weeha-cls-4" d="M726.34,967.42c-36.08,18.82-76.1,30.36-114.84,32.29a46.78,46.78,0,0,1-3,4.71,47.44,47.44,0,0,1-2.88-4.49A42.3,42.3,0,0,1,600,979a43.16,43.16,0,0,1,8.5-25.42c11-15.29,31.76-25.58,55.5-25.58C694.35,928,719.76,944.83,726.34,967.42Z"/><path class="weeha-cls-1" d="M486.56,777.4c-1.33,2.33-2.63,4.67-3.87,7-28.37-2.95-54.91-6-77.23-7.78l-4.63-11.56,42.87,6.16Z"/><path class="weeha-cls-2" d="M482.69,784.43a262.31,262.31,0,0,0-12.57,27.13,265.15,265.15,0,0,0-11.39,36.15l-1.15,4.84-23.77-27.64a155.61,155.61,0,0,1-26.5-43.64l-1.85-4.62C427.78,778.39,454.32,781.48,482.69,784.43Z"/><path class="weeha-cls-1" d="M803.52,764.67l-2.8,7c-22.28,1.69-50,5.89-80.3,10-.86-1.58-1.73-3.16-2.63-4.72l42.86-6.16Z"/><path class="weeha-cls-2" d="M800.72,771.66,797,780.85a155.8,155.8,0,0,1-26.5,43.63l-23.77,27.65-1.15-4.84a264.37,264.37,0,0,0-11.4-36.16,261.68,261.68,0,0,0-13.8-29.43C750.69,777.55,778.44,773.35,800.72,771.66Z"/><circle class="weeha-cls-3" cx="455" cy="516" r="67"/><circle class="weeha-cls-3" cx="749" cy="516" r="67"/></svg>