<svg id="Layer_1" data-name="Layer 1" xmlns="http://www.w3.org/2000/svg" viewBox="0 0 1200 1200"><defs><style>.cls-1{fill:#8ebf80;}.cls-2{fill:#1c1818;}.cls-3{fill:none;}.cls-4{fill:#fff;}</style></defs><path class="cls-1" d="M594,99C317.86,99,94,322.86,94,599s223.86,500,500,500,500-223.86,500-500S870.14,99,594,99ZM714,652a53,53,0,1,1,106,0v24.06l-106,.14Zm-162,5a53,53,0,1,1,106,0v19.27l-106,.14Zm-168-4a53,53,0,1,1,106,0v23.5l-106,.13Z"/><path class="cls-2" d="M865.32,676v.74c0,146.53-118.79,265.32-265.32,265.32S334.68,823.27,334.68,676.74v0l49.32-.07,106-.13,62-.09,106-.14,56-.07,106-.14Z"/><line class="cls-3" x1="384" y1="676.63" x2="334.68" y2="676.7"/><line class="cls-3" x1="714" y1="676.2" x2="658" y2="676.27"/><line class="cls-3" x1="865.32" y1="676" x2="820" y2="676.06"/><line class="cls-3" x1="552" y1="676.41" x2="490" y2="676.5"/><path class="cls-1" d="M490,653v23.5l-106,.13V653a53,53,0,1,1,106,0Z"/><path class="cls-4" d="M510,676.5V700a53,53,0,0,1-106,0V676.63Z"/><path class="cls-1" d="M658,657v19.27l-106,.14V657a53,53,0,1,1,106,0Z"/><path class="cls-4" d="M658,676.27V704a53,53,0,0,1-106,0V676.41Z"/><path class="cls-1" d="M820,652v24.06l-106,.14V652a53,53,0,1,1,106,0Z"/><path class="cls-4" d="M800,676.06V699a53,53,0,0,1-106,0V676.2Z"/><circle class="cls-4" cx="745.32" cy="432.5" r="153.5"/><circle class="cls-4" cx="442.5" cy="432.5" r="153.5"/><circle class="cls-2" cx="463.15" cy="409.3" r="68.92"/><circle class="cls-2" cx="721.31" cy="464.87" r="68.92"/></svg>