<svg id="Layer_1" data-name="Layer 1" xmlns="http://www.w3.org/2000/svg" viewBox="0 0 1366 768"><defs><style>.cls-1{fill:#fff;}.cls-2{fill:#b18f5f;}.cls-3{fill:#7f5b38;fill-opacity:0.55;}.cls-4{fill:#825d35;}</style></defs><path class="cls-1" d="M114.37,505.83l70.17.18,10.32,12.12L203,518l1.85-15.05L266.92,506l61.84-16.08L323,517.33l-13.2,1.59,14.34,8-.95,5.48-21.31,4.46,22.47,7.81L322.83,587l-16.23,3L322,599.32,320.3,629.4,297,635.26,319.4,639l3.52,38.19c-66.68-15.22-138.59-14-212.62-6l3.48-47.87,22.33-3.11-20.39-3.75-.35-28.68,7-5.59-8.18-4,2-6.86,18.27-3-18.36-3.79-.31-25.95L131,531.5l-17.3-1.07Z"/><path class="cls-2" d="M114.86,506.44l70.17.18,10.32,12.12,8.13-.14,1.85-15.05,62.08,3.05,61.84-16.08-5.77,27.42-13.2,1.59,14.34,8-.95,5.48-21.3,4.46,22.47,7.81-1.52,42.38-16.23,3,15.37,9.3L320.79,630l-23.32,5.86,22.42,3.72,3.52,38.19c-66.68-15.22-138.58-14-212.62-6l3.48-47.87,22.33-3.11-20.38-3.75-.35-28.68,7-5.59-8.19-4,2-6.86,18.27-3-18.35-3.79-.32-25.95,15.17-7.09L114.14,531Z"/><path class="cls-2" d="M328.75,489.92,266.92,506l-62.07-3.05L203,518l-8.13.14L184.55,506l-70.18-.18-.71,24.6L131,531.51l-15.16,7.09.32,25.94,18.36,3.79-18.28,3-2,6.86,8.19,4-7,5.59.35,28.69,20.39,3.74-22.33,3.12-3.48,47.86c74-8,145.94-9.25,212.63,6L319.39,639,297,635.25l23.32-5.86L322,599.32,306.6,590l16.24-3,1.5-42.37-22.47-7.81,21.3-4.48,1-5.47-14.34-8,13.2-1.59,5.75-27.42Z"/><path class="cls-3" d="M131.51,620.85l-8.85,1.23q9.75,1.53,19.41,3.72c15.58,3.55,30.35,8.75,43.75,19.86-8.88,11.13-22.67,18-34.93,21.89,5.92-.42,11.82-.81,17.71-1.11a149.53,149.53,0,0,0,34.24-20.78c-21.41-14.59-46.58-20.76-71.33-24.81Z"/><path class="cls-3" d="M113.73,624.12l-.11,1.39,1.21,0a170,170,0,0,1,18.94,2.91c12.69,2.66,24.1,7.8,34.51,17.63-6.45,10.89-20.19,15.9-30,18.67-3.05.86-17.75,2.85-27.82,4.82l-.12,1.6c5.57-.6,11.12-1.13,16.66-1.66l.07,0c16.76-3.27,33.11-9.73,46.59-23-14.69-17.33-39.1-20.68-59.9-22.39Z"/><path class="cls-3" d="M113.43,628.16l-.07,1c15.63,1.79,30.85,8,44.9,17-8.46,7.63-18.62,11.88-28.39,15.62-2.31.89-11.68,2.43-19.17,4l-.17,2.36c18.48-2.48,36.32-8.46,52.07-22-6-8.34-17.58-11.46-25.83-13.5a234.3,234.3,0,0,0-23.34-4.42Z"/><path class="cls-3" d="M112.8,636.91l-1.64,22.53c9.85-1.84,19.28-6.93,28.08-12.92a98.67,98.67,0,0,0-26.44-9.61Z"/><path class="cls-3" d="M115.65,610.22l0,1.52c.47,0,.9,0,1.22,0,7.14.73,14.18,1.6,21.28,2.78a259.73,259.73,0,0,1,36.65,9.06c22.44,7.16,42.64,19.93,66.08,22-12.2,3.15-24,6.92-35.55,13.09-3.32,1.78-6.4,4.7-9.65,6.77q3.59-.07,7.15-.1c9.4-4.43,18.74-9,28.43-12.44,15.2-5.34,30.81-4.27,46.43-4.61l40.86-.91a14.76,14.76,0,0,1,1.61.09l-.47-5.22c-37.6,0-76.19,2.93-112.78-10-8.73-3.08-16.83-7.92-25.55-11s-18.11-4.6-27.17-6.36a331.84,331.84,0,0,0-38.56-4.7Z"/><path class="cls-3" d="M314.39,658.15a369.27,369.27,0,0,0-74.91,8c6.25.31,12.46.74,18.64,1.25,19.07-2.29,38.37-2.65,57.9-3.72,1-.06,3.12.11,5.68.2l-.52-5.66c-2.26,0-4.53-.05-6.79,0Z"/><path class="cls-3" d="M320,667.69c-13.24.09-26.53.78-39.76,2q8.49,1.08,16.91,2.46l21.56-.68c.69,0,2.05.09,3.67.2l-.37-4c-.67,0-1.34,0-2,0Z"/><path class="cls-3" d="M322.72,674.91l-8.43.41c2.64.54,5.27,1.09,7.89,1.68l.73,0-.19-2Z"/><path class="cls-3" d="M115.55,602.63V604c2.93.22,5.86.51,8.78.82,17.62,1.84,35.56,3.56,53,7.22,16.83,3.53,31.83,14.87,48.24,19.4,18.17,5,37.73,4.07,56.24,4.48,6.66.14,13.33.17,20,.16l-4.86-.82,14.48-3.64-2.89,0c-18.23.13-36.53-.18-54.71-2.09-9.1-1-18.17-2-27.23-3.5-7.35-1.22-15-6.39-22.38-8.81-29.18-9.58-58.77-13-88.71-14.63Z"/><path class="cls-3" d="M147.37,596.66c-6.89,0-13.79.21-20.72.21H115.48l0,2,8,.09c19.07.21,38.6-1.53,57.42,3.18,8.53,2.13,17,4.6,25.47,7.27,7.43,2.34,14.54,7.84,22.26,10.24,29.48,9.16,61.24,7.29,91.8,7.09l.23-4.11c-.77,0-1.41.08-1.8.07L280,621c-16.31-.74-33.75.36-49.78-4.23-8.14-2.32-15.39-6.65-23.22-10.06-8.15-3.55-16.84-5.3-25.3-7.13-11.41-2.47-22.83-2.89-34.31-2.86Z"/><path class="cls-3" d="M266.92,559.84c-8.15,0-16.31.49-24.51,1.22a63.62,63.62,0,0,0-18.29,6c-5.64,3-10.49,8.17-16.09,11-12.09,6.1-25.38,9.1-38.24,11,16.52,1.73,33.23,9.74,48.49,17.85,16.55,8.8,37.45,8.47,55.09,9.86,15.82,1.25,31.67,1.92,47.51,2.14l.18-3.25-5.7-.25c-9.55-.43-19.09-1.1-28.63-1.75-18.2-1.24-36.63-3.25-54.59-7.36-15.69-3.59-30.4-14.49-46.33-15.95,12-2.05,21.82-7.32,32.27-14.76,12-8.53,22.86-12,36.34-13a207.33,207.33,0,0,1,40.85.62c9.71,1.2,18.83,4.65,28.17,7.15l.05-1.68c-2.62-.59-5.34-1.88-7.89-2.56a183.43,183.43,0,0,0-24.16-4.82,185.43,185.43,0,0,0-24.52-1.45Z"/><path class="cls-3" d="M265.15,566.4c-19.92,0-42.59,4-56.3,24.6,16.27,15.41,42.68,16.23,62.15,18.29,16.71,1.77,33.59,1.27,50.39.54l.09-1.52c-5.46,0-11-.65-16.07-.89-10-.45-20-1.13-29.94-1.77-19-1.21-39.72-4.44-57.11-15.31,17.5-16.15,37.52-22.15,59-21,15.64.83,30.6,4.88,45.83,7.86l.11-3a16.48,16.48,0,0,1-4-.86c-5.55-2.42-11.32-3.49-17.12-4.36a264.42,264.42,0,0,0-33.1-2.52c-1.3,0-2.62-.05-3.95-.05Z"/><path class="cls-3" d="M181.31,587.75l-42.84.41-23.1.23,0,2.2,62.39-.89c1.19-.55,2.35-1.3,3.51-2Z"/><path class="cls-3" d="M269.24,553.34c-18.16.07-34,1-38,2.13-7.59,2.08-15.65,6.08-22.84,9.82-6.69,3.47-13.72,4.73-20.88,6-18.79,3.37-38.24,2.24-57.16,2.79l-15,.43-1,3.7,1,.48c12.92-.08,25.85-.28,38.76-.77,16.65-.64,36.62,1.44,52-7.82,32.12-19.37,70.25-16.77,104.72-12.28a102.38,102.38,0,0,1,13.08,2.65l.12-3.36c-13.07-2.9-35.19-3.87-54.66-3.79Z"/><path class="cls-3" d="M269.21,546.23c-13.19.07-26.32,1-39.53,2.41-15.51,1.62-30.85,5.62-46.34,7.36-18.33,2-36.68,3.51-55.05,4.65-4.07.26-8.14.43-12.22.57l0,2.95c31.4.14,63.08,1.29,93.88-6.83,16.88-4.46,33.11-7.69,50.43-8.27,17-.57,34.45.9,51.4,3.09,4.1.53,8.16,1.12,12.19,2l.11-2.93c-4-.75-7.91-1.14-9.32-1.36-9.18-1.43-18.33-2.54-27.56-3.11q-9-.56-18-.5Z"/><path class="cls-3" d="M258.19,536.55q-14.56,0-29.14.41c-37.42.9-74.85.87-112.28,1.18l-1,.46,0,3c32.07,0,64.12.48,96.2-.52,32.51-1,65.63-5,98.17-1.32l-7-2.45c-5.27-.21-10.55-.4-15.82-.5q-14.58-.27-29.15-.23Z"/><path class="cls-3" d="M323.35,515.68c-2.49.07-5,.18-7.45.29a202.83,202.83,0,0,0-24.92,2.5c-18.18,3.15-35.94,6.95-54.33,7.93a228.57,228.57,0,0,1-55.32-3.93c-17.77-3.43-35.86-4.31-53.78-5.68-4.49-.34-9-.69-13.47-.91l-.08,2.93a350,350,0,0,1,39.92.93c17.32,1.46,34.28,7.37,51.7,8.7a322.45,322.45,0,0,0,56.95-.84c17.31-1.71,34.23-5.31,51.67-5.61l1.05,0-5.48-3,13.2-1.59.35-1.66Z"/><path class="cls-3" d="M309.29,505.64c-6.22,0-12.44.17-18.66.47-8.93.43-17.84,1.18-26.73,2.41-8.5,1.18-16.23,5.09-24.62,6.61A156.72,156.72,0,0,1,203.12,517l-.13,1-8.13.14-1.5-1.77c-20.4-1.77-40.82-5.51-61.12-6.93-2.12-.15-10.39-1-17.94-1.16l-.1,3.43c13.49.2,27,.78,40.43,2.23,17.93,1.93,35.89,7.05,54,8.93,17.58,1.82,33.64.54,50.68-5.09,16.58-5.49,33.53-10,50.72-9.23,4.9.22,9.79.45,14.69.66l.66-3.15c-3.28-.12-6.57-.24-9.86-.32-2.07-.06-4.15-.09-6.22-.09Z"/><path class="cls-3" d="M282.05,575.22c-17,.21-35.14,2.71-49.65,15.13,16.62,11.3,37.29,11,55.68,12,11.38.62,22.54-.21,33.76-.84l.13-2.2L319.69,598c-2.72-.2-5.44-.46-8.23-.78-6.61-.76-13.3,1.18-19.88,1.89-14.46,1.56-31.55-.81-44.66-9.36,15.37-11.41,31.58-15,48.94-9.18,7,2.32,13.06,6.41,20.32,7.59l.38,0,6.28-1.16.18-4.73c-12.53-1.74-25-7-37.58-7.06-1.12,0-2.26,0-3.39,0Z"/><path class="cls-3" d="M260.94,589.05c12.23,9.2,28.48,5.82,41.58,2.6C289.24,582.59,274.76,582.65,260.94,589.05Z"/><path class="cls-3" d="M308.15,495.28,293.78,499l5.08-.11,28.16-.73.57-2.77L316,495.32l-7.82,0Zm-67.92,9.38c-8.12,2.84-16.33,5.32-25.21,5.18a80.42,80.42,0,0,1-10.91-.95l-.63,5.13c14.67.76,34,.41,47.54-6.79,1.26-.68,2.52-1.28,3.78-1.84l-14.57-.73Zm-71.6,1.3c2.62,1.14,5.22,2.27,7.82,3.18a85.27,85.27,0,0,0,13.71,3.47L184.55,506l-15.92,0Z"/><path class="cls-3" d="M204.85,502.93l-.28,2.32q2.79.45,5.59.73a51.12,51.12,0,0,0,18.17-1.89l-23.48-1.16Z"/><path class="cls-3" d="M328.75,489.92,322,491.67c2.13,0,4.26,0,6.39-.07l.35-1.68Z"/><path class="cls-4" d="M167,621.38c2,.6,3.93,1.23,5.88,1.9C170.9,622.6,169,622,167,621.38Zm7.21,2.38c9.26,3.42,17.94,7.9,27.19,11.88,12.1,5.2,24.74,8.09,37.38,10a120.09,120.09,0,0,0-21.56,8.15c.68-.28,1.36-.56,2.05-.82,15.58-5.83,31.79-6.74,47.89-7.76-18.37,0-35.68-1.15-53.64-6.64-13.28-4.05-26.12-10.14-39.31-14.83Zm43,30a103.84,103.84,0,0,0-10.72,5.34C210,657.32,213.57,655.51,217.17,653.81Zm-10.72,5.34c-4.19,2.15-8.37,4.32-12.59,6.38l1.44,0c3.72-2.08,7.43-4.28,11.15-6.36Z"/><path class="cls-4" d="M126.63,621.53l-3.49.5c8.57,1.52,17.1,3.55,25.52,5.59,1,.23,2.09.48,3.17.75-1.77-.58-3.53-1.18-5.32-1.84a104.67,104.67,0,0,0-19.88-5ZM152,628.41c8.77,2.85,17.27,5,25.23,10-7.58-5.25-17.37-8-25.23-10Zm25.56,10.18A29.12,29.12,0,0,1,185,646c-9.58,8.79-19.9,16.18-31.09,20.53,11.89-3.85,24.51-9.3,32.67-20.53A47.74,47.74,0,0,0,177.55,638.59ZM153.89,666.5c-1.12.37-2.23.73-3.34,1.07l.55,0c.93-.32,1.87-.66,2.79-1Z"/><path class="cls-4" d="M168.28,646.09c-8.55-9.09-19.51-13.29-30.05-16.61,9.45,1.58,20.06,5.95,27.8,13.32,5.08,4.84,2.37,5.81-2.64,9.33a154.16,154.16,0,0,1-16.48,9.71c6.84-3.47,17-7.71,21.37-15.75"/><path class="cls-4" d="M158.27,646.09A72,72,0,0,0,128,631.77c11.41,1.74,21.83,7.14,31.62,14.75a89,89,0,0,1-26.94,14.19,109.68,109.68,0,0,0,25.61-14.62"/><path class="cls-4" d="M138.21,646.22c-3.85-.12-12.72,7.63-16.12,9a58,58,0,0,1-10.86,3.18l0,.77a63.2,63.2,0,0,0,28.06-12.69,1.81,1.81,0,0,0-1-.3Z"/><path class="cls-4" d="M139.23,646.53c-7.46-4.27-15.5-8.3-23.71-9a44.74,44.74,0,0,1,11.4,3.12c3.47,1.38,8.87,6.64,12.31,5.86"/><path class="cls-4" d="M176.3,612.26A90.08,90.08,0,0,1,204.25,621c8,4.08,16.09,10.36,24.8,11.68C210.87,628.32,194.68,616.47,176.3,612.26Z"/><path class="cls-4" d="M183,602.28c7.67,2.31,17,3.2,24.07,7.57,6.52,4,13.79,8.62,21,9.78-6.4-1.45-14.06-3.27-19.58-7.89-6.85-5.73-17.64-6.76-25.5-9.46"/><path class="cls-4" d="M175.83,590.13a175.44,175.44,0,0,1,29.8,9.79c9.17,4.07,17.42,11.12,27.44,11.6-19.68-4.08-37.36-18.75-57.24-21.39"/><path class="cls-4" d="M229.92,601.71c-4.35-1.57-20.83-5.8-19-12.84,2.33-8.91,17.79-14.71,23.71-17.26-8.13,2.3-18.51,6.94-23.75,15.91-3.13,5.38.56,6.44,4.82,8.9C220.24,599.05,225.19,600.43,229.92,601.71Z"/><path class="cls-4" d="M183.18,586.1c10.7-1.59,22-4.56,30.95-12.75C205.63,581.51,193.31,583.69,183.18,586.1Z"/><path class="cls-4" d="M190.75,570.49c15.63-.51,28.33-13.37,43.88-15.36C219.25,557.66,206,568.18,190.75,570.49Z"/><path class="cls-4" d="M232.36,590.35c8.64-6.93,18.43-10.51,28.32-12.92-9.48,1.87-18.44,6.52-26.72,12.7,7,5.2,15.61,7,23.38,9-8-1.43-18.13-2.57-25-8.76"/><path class="cls-4" d="M260.94,589.05c4.93-3.42,10.83-5.51,16.43-5a25.27,25.27,0,0,0-15.16,5.21,38.11,38.11,0,0,0,7.35,3.47C266.64,592.15,263.33,591.42,260.94,589.05Z"/><path class="cls-4" d="M164.94,557.6c27.62-1.26,54.54-9.81,82.14-10.85-27.62,2-54.62,7.69-82.14,10.85"/><path class="cls-4" d="M162.94,521.17c17.32,4,34.84,7.17,52.42,7.8-17.63.26-35.24-2.92-52.42-7.8"/><path class="cls-4" d="M161.27,515.09c18.56,4.35,37.24,7.75,56.1,8.68-18.75-1.67-37.49-5.3-56.1-8.68"/><path class="cls-4" d="M165,506c2.32.81,4.65,1.61,7,2.31A122.67,122.67,0,0,0,189.65,512l-.78-.91c-5.84-1.45-11.6-3.29-17.35-5.11L165,506Zm38.6,7.47v.16c1.81.14,3.65.22,5.49.2C207.21,513.69,205.38,513.56,203.55,513.43Z"/><path class="cls-4" d="M293.5,579.72c8.21,3.34,15.77,8.42,24.54,8.68C309.49,587.17,301.81,582.33,293.5,579.72Z"/><path class="cls-4" d="M297.51,598.38c3.89-.84,8.08-2,12-1.3C306.06,594.55,301,596.87,297.51,598.38Z"/><path class="cls-4" d="M305.18,572.78c6.12,1,12,3.63,18,5l0-.71c-5.89-2.06-12-4.26-18-4.27Z"/><path class="cls-4" d="M301.85,556.73c6.69,1.24,14.58,2,21.91,4l0-.18a109.73,109.73,0,0,0-21.93-3.79Z"/><path class="cls-4" d="M295.84,550.66A165.26,165.26,0,0,1,324,555.23l0-1a128,128,0,0,0-28.17-3.57Z"/><path class="cls-4" d="M291.16,538.62l-1.87,0a145.84,145.84,0,0,1,16.33.9c2,.24,4.08.44,6.13.69l-3.16-1.09c-5.8-.48-11.65-.6-17.43-.55Zm-1.87,0c-4.29,0-8.57.08-12.82.29C280.68,538.85,285,538.73,289.29,538.67Z"/><path class="cls-4" d="M241,504.71c-2.37,1-4.73,2-7.1,2.74,3.73.21,7.47-.95,11.19-2.54l-4.09-.2Z"/><path class="cls-1" d="M332.82,501.46l74.14.19,10.9,12.12,8.59-.14,2-15.06L494,501.62l65.33-16.07L553.23,513l-14,1.59,15.15,8-1,5.48-22.51,4.46,23.74,7.82-1.6,42.37-17.15,3,16.24,9.3L550.39,625l-24.64,5.85,23.69,3.72,3.72,38.19c-70.46-15.22-146.42-14-224.64-6L332.2,619l23.6-3.11-21.54-3.76-.37-28.68,7.44-5.58-8.64-4,2.06-6.87,19.3-3-19.39-3.78-.34-26,16-7.08-18.28-1.08Z"/><path class="cls-2" d="M333.34,502.08l74.14.18,10.9,12.12,8.59-.14,2-15.06,65.58,3.05,65.33-16.07-6.09,27.42-14,1.59,15.15,8-1,5.48-22.51,4.46,23.74,7.82-1.6,42.37-17.15,3,16.24,9.3-1.76,30.09-24.64,5.85L550,635.22l3.72,38.19c-70.46-15.22-146.42-14-224.64-6l3.68-47.87,23.6-3.11-21.54-3.76L334.41,584l7.44-5.58-8.64-4,2.06-6.87,19.3-3-19.39-3.78-.34-25.95,16-7.09-18.28-1.08Z"/><path class="cls-2" d="M559.32,485.55,494,501.61l-65.58-3-2,15.06-8.6.14L407,501.64l-74.14-.19-.76,24.61,18.27,1.09-16,7.08.33,25.94,19.4,3.8-19.31,3-2.07,6.86,8.65,4-7.45,5.59.37,28.69,21.54,3.75L332.2,619l-3.67,47.86c78.22-8,154.18-9.24,224.63,6l-3.73-38.19-23.68-3.72L550.39,625,552.15,595l-16.24-9.3,17.16-3,1.59-42.36-23.74-7.81,22.5-4.48,1-5.47-15.15-8,14-1.59,6.08-27.42Z"/><path class="cls-3" d="M350.93,616.49l-9.34,1.22q10.29,1.53,20.5,3.73c16.46,3.55,32.07,8.75,46.22,19.85-9.37,11.13-23.95,18-36.91,21.9,6.26-.42,12.5-.81,18.72-1.11a160.16,160.16,0,0,0,36.17-20.79c-22.62-14.58-49.21-20.75-75.36-24.8Z"/><path class="cls-3" d="M332.15,619.76l-.11,1.38c.48,0,.95,0,1.27.05a188.75,188.75,0,0,1,20,2.91c13.41,2.65,25.46,7.8,36.47,17.62-6.82,10.9-21.33,15.9-31.74,18.68-3.22.85-18.76,2.84-29.39,4.81l-.13,1.61c5.88-.6,11.74-1.14,17.6-1.66l.08,0c17.7-3.28,35-9.74,49.21-23-15.51-17.34-41.31-20.68-63.28-22.4Z"/><path class="cls-3" d="M331.83,623.8l-.07,1c16.51,1.79,32.59,8,47.44,17-8.94,7.63-19.68,11.89-30,15.63-2.44.88-12.33,2.43-20.25,4l-.18,2.37c19.53-2.48,38.38-8.47,55-22-6.32-8.33-18.57-11.45-27.28-13.49-8.22-1.92-16.42-3.31-24.67-4.43Z"/><path class="cls-3" d="M331.17,632.54l-1.74,22.54c10.41-1.85,20.38-6.93,29.67-12.93a108.44,108.44,0,0,0-27.93-9.61Z"/><path class="cls-3" d="M334.18,605.85l0,1.52c.5,0,.95,0,1.29,0,7.54.72,15,1.6,22.48,2.77a288.62,288.62,0,0,1,38.72,9.06c23.71,7.16,45.05,19.93,69.81,22-12.88,3.14-25.38,6.91-37.55,13.08-3.52,1.78-6.77,4.71-10.2,6.77l7.55-.09c9.93-4.43,19.8-9,30-12.45,16.06-5.33,32.54-4.27,49.05-4.61l43.17-.91c.44,0,1,0,1.7.09l-.5-5.22c-39.72,0-80.49,2.94-119.15-10-9.22-3.08-17.78-7.92-27-11s-19.13-4.6-28.7-6.36a364.74,364.74,0,0,0-40.74-4.7Z"/><path class="cls-3" d="M544.15,653.78a411.51,411.51,0,0,0-79.15,8c6.61.31,13.16.73,19.7,1.25,20.14-2.29,40.53-2.66,61.16-3.73,1,0,3.3.12,6,.21l-.56-5.66c-2.38,0-4.78-.05-7.16-.05Z"/><path class="cls-3" d="M550.11,663.32c-14,.1-28,.78-42,2q9,1.08,17.87,2.45l22.78-.68c.72,0,2.17.1,3.87.21l-.38-4Z"/><path class="cls-3" d="M552.94,670.55l-8.9.4c2.78.55,5.57,1.09,8.33,1.69l.78,0-.21-2Z"/><path class="cls-3" d="M334.07,598.26l0,1.37c3.09.21,6.18.51,9.27.81,18.61,1.85,37.57,3.56,56,7.23,17.79,3.53,33.63,14.86,51,19.4,19.2,5,39.86,4.06,59.41,4.47,7,.15,14.09.18,21.13.16l-5.13-.82L541,627.25c-1,0-2,0-3,0-19.26.14-38.6-.17-57.81-2.09-9.61-1-19.19-2-28.76-3.49-7.77-1.23-15.85-6.39-23.65-8.82-30.83-9.57-62.09-13-93.72-14.62Z"/><path class="cls-3" d="M367.69,592.3c-7.27,0-14.57.2-21.89.2H334l0,2,8.43.09c20.15.22,40.78-1.53,60.66,3.18,9,2.14,18,4.61,26.91,7.27,7.85,2.35,15.36,7.85,23.52,10.25,31.14,9.16,64.7,7.29,97,7.08l.24-4.11c-.8.05-1.49.09-1.9.07l-41.08-1.77c-17.23-.74-35.66.36-52.59-4.22-8.61-2.33-16.26-6.65-24.53-10.06-8.62-3.55-17.8-5.31-26.73-7.14-12.05-2.46-24.12-2.88-36.25-2.85Z"/><path class="cls-3" d="M494,555.47c-8.61,0-17.23.5-25.89,1.23a69.63,69.63,0,0,0-19.33,6c-6,3-11.08,8.17-17,11-12.78,6.1-26.82,9.1-40.4,11,17.45,1.73,35.1,9.75,51.22,17.86,17.49,8.8,39.57,8.47,58.21,9.86,16.71,1.24,33.45,1.91,50.19,2.13l.19-3.25-6-.25c-10.08-.42-20.16-1.1-30.24-1.75-19.23-1.23-38.69-3.25-57.67-7.36-16.58-3.59-32.12-14.49-48.95-15.94,12.66-2.05,23.06-7.32,34.1-14.77,12.64-8.52,24.15-12,38.39-13a232.13,232.13,0,0,1,43.15.61c10.26,1.2,19.9,4.66,29.76,7.16l.06-1.68c-2.77-.6-5.64-1.89-8.34-2.57A200,200,0,0,0,494,555.47Z"/><path class="cls-3" d="M492.13,562c-21.05,0-45,4-59.48,24.6,17.18,15.41,45.08,16.22,65.65,18.28,17.66,1.77,35.49,1.28,53.24.55l.09-1.52c-5.77-.05-11.6-.66-17-.89-10.54-.46-21.08-1.14-31.62-1.77-20.12-1.21-42-4.44-60.34-15.31,18.49-16.16,39.64-22.15,62.34-21,16.52.83,32.32,4.88,48.41,7.86l.11-3a18.17,18.17,0,0,1-4.19-.87c-5.86-2.41-12-3.49-18.09-4.36a296.7,296.7,0,0,0-35-2.52c-1.38,0-2.78,0-4.18,0Z"/><path class="cls-3" d="M403.55,583.39l-45.26.4-24.4.23,0,2.2,65.92-.88c1.26-.55,2.48-1.31,3.71-2Z"/><path class="cls-3" d="M496.45,549c-19.19.07-35.93,1-40.2,2.14-8,2.07-16.53,6.08-24.13,9.81-7.06,3.48-14.49,4.74-22.05,6-19.86,3.37-40.4,2.25-60.39,2.8l-15.89.43-1.11,3.7,1.07.48c13.66-.08,27.31-.28,41-.78,17.59-.63,38.68,1.45,54.9-7.81,33.94-19.37,74.22-16.77,110.64-12.29a115.79,115.79,0,0,1,13.82,2.66l.12-3.37c-13.81-2.89-37.17-3.86-57.75-3.79Z"/><path class="cls-3" d="M496.41,541.86c-13.93.07-27.8,1-41.77,2.41-16.38,1.63-32.58,5.63-48.95,7.36-19.36,2.06-38.75,3.51-58.15,4.66-4.3.25-8.61.42-12.92.57l0,2.95c33.18.13,66.65,1.29,99.18-6.84,17.83-4.45,35-7.69,53.28-8.27,18-.57,36.4.91,54.31,3.09,4.33.53,8.62,1.12,12.88,2l.11-2.93c-4.25-.76-8.36-1.14-9.85-1.36-9.69-1.43-19.36-2.54-29.11-3.11-6.37-.38-12.72-.53-19.05-.5Z"/><path class="cls-3" d="M484.77,532.19q-15.39,0-30.79.41c-39.53.9-79.08.87-118.62,1.18l-1,.45,0,3c33.88,0,67.74.47,101.64-.52,34.34-1,69.33-5,103.71-1.32l-7.43-2.46c-5.57-.2-11.14-.4-16.72-.49q-15.39-.27-30.8-.23Z"/><path class="cls-3" d="M553.61,511.31q-3.95.12-7.87.3a221.86,221.86,0,0,0-26.33,2.5c-19.21,3.15-38,6.95-57.39,7.92a254.27,254.27,0,0,1-58.45-3.92c-18.77-3.43-37.88-4.31-56.82-5.68-4.74-.35-9.48-.7-14.23-.91l-.09,2.93a387.89,387.89,0,0,1,42.17.93c18.31,1.45,36.22,7.37,54.63,8.7a362,362,0,0,0,60.17-.84c18.28-1.71,36.16-5.32,54.59-5.61l1.1,0-5.79-3.05,14-1.59.37-1.66Z"/><path class="cls-3" d="M538.76,501.27c-6.58,0-13.15.18-19.72.48-9.43.43-18.85,1.17-28.24,2.41-9,1.18-17.15,5.09-26,6.61a176.08,176.08,0,0,1-38.21,1.91l-.13,1-8.59.14L416.28,512c-21.55-1.76-43.13-5.51-64.57-6.92-2.25-.15-11-1.05-18.95-1.16l-.11,3.43c14.25.19,28.51.78,42.71,2.22,18.95,1.94,37.91,7.05,57,8.93,18.57,1.82,35.54.55,53.54-5.09,17.52-5.48,35.42-10,53.59-9.22l15.51.66.71-3.16c-3.47-.11-7-.23-10.42-.32-2.19-.05-4.39-.08-6.58-.09Z"/><path class="cls-3" d="M510,570.85c-18,.22-37.12,2.71-52.44,15.13,17.55,11.31,39.39,11,58.82,12,12,.61,23.81-.22,35.67-.84l.13-2.21-2.4-1.36c-2.88-.19-5.75-.45-8.7-.77-7-.76-14,1.17-21,1.88-15.28,1.56-33.33-.81-47.18-9.35,16.24-11.42,33.36-15,51.71-9.18,7.35,2.32,13.79,6.4,21.46,7.59l.41,0,6.63-1.16.19-4.72c-13.24-1.75-26.39-7-39.7-7.07Z"/><path class="cls-3" d="M487.68,584.69c12.91,9.19,30.08,5.82,43.92,2.6C517.58,578.23,502.28,578.29,487.68,584.69Z"/><path class="cls-3" d="M537.55,490.91l-15.19,3.73,5.38-.11,29.74-.73.61-2.77L545.81,491c-2.75,0-5.51,0-8.26,0ZM465.8,500.3c-8.59,2.84-17.25,5.31-26.64,5.17a88,88,0,0,1-11.53-1l-.66,5.13c15.5.76,35.94.42,50.23-6.79,1.33-.67,2.66-1.27,4-1.84l-15.39-.72Zm-75.65,1.29c2.77,1.14,5.52,2.28,8.26,3.18a94.27,94.27,0,0,0,14.49,3.48L407,501.64l-16.82-.05Z"/><path class="cls-3" d="M428.41,498.57l-.29,2.32q2.94.45,5.91.72a56.62,56.62,0,0,0,19.19-1.88l-24.81-1.16Z"/><path class="cls-3" d="M559.32,485.55l-7.12,1.75q3.38,0,6.74-.06l.37-1.69Z"/><path class="cls-4" d="M388.38,617c2.08.6,4.15,1.23,6.21,1.91C392.55,618.23,390.49,617.58,388.38,617ZM396,619.4c9.79,3.42,19,7.9,28.73,11.88,12.78,5.2,26.14,8.08,39.49,10a130.93,130.93,0,0,0-22.77,8.16c.71-.28,1.43-.56,2.16-.82,16.45-5.83,33.58-6.75,50.6-7.77-19.42,0-37.7-1.15-56.68-6.63-14-4.05-27.59-10.15-41.53-14.83Zm45.44,30.05a110.62,110.62,0,0,0-11.32,5.33C433.86,653,437.63,651.15,441.43,649.45Zm-11.32,5.33c-4.43,2.16-8.85,4.32-13.3,6.39l1.51,0c3.94-2.08,7.85-4.28,11.79-6.36Z"/><path class="cls-4" d="M345.78,617.16l-3.69.5c9.05,1.52,18.06,3.55,27,5.59l3.34.75q-2.79-.86-5.61-1.84a116.74,116.74,0,0,0-21-5Zm26.79,6.89c9.27,2.84,18.25,5,26.65,10-8-5.25-18.35-8-26.65-10Zm27,10.17a30.27,30.27,0,0,1,7.85,7.39c-10.13,8.79-21,16.17-32.85,20.53,12.56-3.85,25.9-9.3,34.51-20.53A50.32,50.32,0,0,0,399.58,634.22Zm-25,27.92c-1.19.36-2.36.73-3.53,1.07l.58-.05c1-.32,2-.66,2.95-1Z"/><path class="cls-4" d="M389.79,641.72c-9-9.09-20.62-13.28-31.75-16.61,10,1.58,21.19,5.95,29.36,13.32,5.37,4.85,2.51,5.82-2.79,9.33a162.8,162.8,0,0,1-17.4,9.71c7.22-3.46,17.92-7.71,22.58-15.75"/><path class="cls-4" d="M379.2,641.72a77.91,77.91,0,0,0-32-14.31c12.05,1.74,23.06,7.13,33.41,14.75-8.78,6.59-18.57,11-28.47,14.18a117.67,117.67,0,0,0,27.05-14.62"/><path class="cls-4" d="M358,641.86c-4.07-.12-13.44,7.63-17,9a64.57,64.57,0,0,1-11.47,3.18l-.06.77a68.64,68.64,0,0,0,29.65-12.7,2,2,0,0,0-1.09-.29Z"/><path class="cls-4" d="M359.09,642.16c-7.88-4.27-16.38-8.29-25-9a49.26,49.26,0,0,1,12,3.12c3.67,1.39,9.38,6.65,13,5.86"/><path class="cls-4" d="M398.25,607.9a98.74,98.74,0,0,1,29.53,8.7c8.5,4.08,17,10.37,26.21,11.68C434.78,624,417.68,612.11,398.25,607.9Z"/><path class="cls-4" d="M405.31,597.92c8.1,2.31,17.92,3.2,25.43,7.56,6.89,4,14.57,8.62,22.19,9.79-6.75-1.45-14.84-3.27-20.68-7.89-7.23-5.73-18.63-6.77-26.94-9.46"/><path class="cls-4" d="M397.76,585.77a191.84,191.84,0,0,1,31.48,9.79c9.69,4.07,18.41,11.12,29,11.59-20.79-4.08-39.47-18.75-60.47-21.38"/><path class="cls-4" d="M454.91,597.35c-4.61-1.57-22-5.8-20.08-12.84,2.46-8.91,18.8-14.72,25.05-17.27-8.59,2.3-19.56,6.94-25.09,15.92-3.32,5.37.59,6.43,5.09,8.9C444.67,594.68,449.91,596.06,454.91,597.35Z"/><path class="cls-4" d="M405.52,581.73c11.31-1.59,23.25-4.55,32.7-12.75C429.24,577.14,416.23,579.32,405.52,581.73Z"/><path class="cls-4" d="M413.53,566.12c16.5-.5,29.92-13.37,46.35-15.35C443.63,553.3,429.66,563.82,413.53,566.12Z"/><path class="cls-4" d="M457.48,586c9.13-6.94,19.47-10.51,29.92-12.93-10,1.88-19.49,6.53-28.22,12.71,7.35,5.2,16.48,7,24.69,9-8.51-1.44-19.15-2.57-26.39-8.76"/><path class="cls-4" d="M487.68,584.69c5.2-3.43,11.43-5.51,17.35-5a27.64,27.64,0,0,0-16,5.2,40.6,40.6,0,0,0,7.76,3.47C493.69,587.79,490.2,587.05,487.68,584.69Z"/><path class="cls-4" d="M386.26,553.23c29.18-1.25,57.61-9.81,86.78-10.84-29.18,2-57.72,7.69-86.78,10.84"/><path class="cls-4" d="M384.14,516.8c18.29,4,36.8,7.17,55.38,7.81-18.63.25-37.23-2.92-55.38-7.81"/><path class="cls-4" d="M382.38,510.73c19.6,4.35,39.34,7.75,59.27,8.67-19.82-1.66-39.61-5.29-59.27-8.67"/><path class="cls-4" d="M386.26,501.59c2.46.82,4.92,1.62,7.42,2.32a136,136,0,0,0,18.68,3.72l-.83-.91c-6.16-1.44-12.25-3.29-18.33-5.11l-6.94,0Zm40.79,7.47,0,.16c1.92.14,3.85.22,5.8.21C430.91,509.33,429,509.2,427.05,509.06Z"/><path class="cls-4" d="M522.07,575.36c8.68,3.34,16.67,8.42,25.93,8.67C539,582.8,530.85,578,522.07,575.36Z"/><path class="cls-4" d="M526.31,594c4.11-.83,8.54-2,12.7-1.3C535.34,590.19,530,592.51,526.31,594Z"/><path class="cls-4" d="M534.41,568.42c6.47,1,12.64,3.63,19,5l0-.7c-6.23-2.06-12.72-4.27-19-4.27Z"/><path class="cls-4" d="M530.9,552.36c7.07,1.24,15.4,2,23.15,4l0-.19a122.8,122.8,0,0,0-23.17-3.79Z"/><path class="cls-4" d="M524.54,546.29a184.89,184.89,0,0,1,29.73,4.57l0-1a143.73,143.73,0,0,0-29.77-3.57Z"/><path class="cls-4" d="M519.6,534.26c-.67,0-1.32,0-2,0a165.24,165.24,0,0,1,17.25.91c2.15.24,4.32.44,6.49.68L538,534.8c-6.13-.47-12.31-.59-18.42-.54Zm-2,0q-6.79,0-13.54.3C508.53,534.48,513.06,534.36,517.62,534.3Z"/><path class="cls-4" d="M466.64,500.34c-2.5,1-5,2-7.5,2.75,3.94.2,7.89-.95,11.82-2.54l-4.32-.21Z"/><path class="cls-1" d="M560.5,492l74.14.18,10.9,12.12,8.6-.14,2-15.06,65.58,3.05L787,476.09l-6.09,27.42L767,505.1l15.14,8-1,5.48L758.6,523l23.74,7.82-1.6,42.38-17.15,3,16.24,9.31-1.76,30.08-24.63,5.86,23.68,3.72,3.72,38.19c-70.45-15.22-146.42-14-224.64-6l3.68-47.87,23.6-3.11-21.54-3.75L561.57,574l7.45-5.58-8.65-4,2.06-6.86,19.3-3-19.39-3.79-.34-26,16-7.09-18.28-1.07Z"/><path class="cls-2" d="M561,492.62l74.14.18,10.9,12.12,8.6-.14,2-15,65.58,3,65.33-16.08-6.08,27.42-14,1.59,15.15,8-1,5.48-22.5,4.46,23.73,7.81-1.6,42.38-17.15,3,16.24,9.31-1.76,30.08L754,622.05l23.69,3.72L781.36,664c-70.45-15.22-146.42-14-224.64-6l3.68-47.87L584,607l-21.54-3.75-.37-28.68,7.45-5.59-8.65-4,2.06-6.86,19.3-3-19.39-3.79-.34-26,16-7.09-18.28-1.07Z"/><path class="cls-2" d="M787,476.1l-65.32,16.06-65.58-3.05-2,15.06-8.59.14-10.9-12.13L560.51,492l-.75,24.6L578,517.69l-16,7.09.33,25.94,19.4,3.79-19.31,3-2.06,6.86,8.64,4L561.57,574l.37,28.69,21.54,3.75-23.59,3.11-3.68,47.87c78.22-8,154.18-9.25,224.64,6l-3.74-38.18-23.68-3.73,24.64-5.86,1.76-30.08-16.24-9.29,17.16-3,1.59-42.36L758.6,523l22.51-4.48,1-5.47L767,505.1l13.95-1.59L787,476.09Z"/><path class="cls-3" d="M578.62,607l-9.35,1.23c6.87,1,13.69,2.25,20.51,3.72,16.45,3.55,32.06,8.75,46.22,19.86-9.38,11.13-24,18-36.91,21.89,6.25-.42,12.49-.81,18.71-1.11A159.35,159.35,0,0,0,654,631.83c-22.62-14.58-49.21-20.75-75.35-24.8Z"/><path class="cls-3" d="M559.83,610.3l-.11,1.39c.48,0,.95,0,1.27,0a188.38,188.38,0,0,1,20,2.91c13.42,2.66,25.47,7.8,36.47,17.63-6.82,10.89-21.33,15.9-31.74,18.67-3.22.86-18.75,2.85-29.39,4.82l-.13,1.6c5.88-.6,11.75-1.14,17.6-1.66l.08,0c17.7-3.27,35-9.73,49.21-23-15.51-17.33-41.31-20.68-63.27-22.39Z"/><path class="cls-3" d="M559.52,614.34l-.08,1c16.52,1.79,32.59,8,47.44,17-8.94,7.63-19.67,11.88-30,15.62-2.44.89-12.33,2.43-20.25,4.05l-.18,2.36c19.53-2.48,38.38-8.46,55-22-6.32-8.34-18.57-11.46-27.28-13.5-8.22-1.92-16.42-3.31-24.66-4.43Z"/><path class="cls-3" d="M558.85,623.09l-1.73,22.53c10.41-1.84,20.37-6.93,29.66-12.92a108.06,108.06,0,0,0-27.93-9.61Z"/><path class="cls-3" d="M561.86,596.4l0,1.52c.5,0,1,0,1.29,0,7.54.73,15,1.6,22.49,2.77a289.38,289.38,0,0,1,38.72,9.07c23.7,7.16,45,19.93,69.8,22-12.88,3.15-25.38,6.91-37.55,13.09-3.51,1.78-6.77,4.7-10.2,6.76l7.56-.09c9.92-4.43,19.79-9,30-12.44,16.06-5.34,32.55-4.27,49.05-4.61q21.6-.45,43.17-.91a16.3,16.3,0,0,1,1.7.09l-.5-5.22c-39.72,0-80.48,2.93-119.15-10-9.21-3.08-17.77-7.92-27-11s-19.13-4.6-28.7-6.36a367.1,367.1,0,0,0-40.74-4.7Z"/><path class="cls-3" d="M771.83,644.33a411.31,411.31,0,0,0-79.14,8c6.6.31,13.16.74,19.69,1.25,20.15-2.29,40.53-2.66,61.16-3.73,1-.05,3.31.12,6,.21l-.55-5.66c-2.39,0-4.79,0-7.17,0Z"/><path class="cls-3" d="M777.79,653.86c-14,.1-28,.79-42,2q9,1.08,17.86,2.46l22.78-.68c.73,0,2.17.09,3.88.2l-.39-4h-2.13Z"/><path class="cls-3" d="M780.63,661.09l-8.91.41c2.78.54,5.57,1.09,8.33,1.68l.78,0-.2-2Z"/><path class="cls-3" d="M561.75,588.81l0,1.36c3.09.22,6.18.51,9.27.82,18.62,1.84,37.57,3.56,56,7.22,17.78,3.53,33.62,14.87,51,19.4,19.2,5,39.86,4.07,59.41,4.48,7.05.14,14.09.17,21.14.15l-5.14-.81,15.3-3.64-3.05.05c-19.26.13-38.6-.18-57.8-2.09-9.62-1-19.2-2-28.77-3.5-7.77-1.23-15.85-6.39-23.64-8.81-30.84-9.58-62.1-13-93.72-14.63Z"/><path class="cls-3" d="M595.37,582.84c-7.27,0-14.57.2-21.89.2h-11.8l0,2,8.43.09c20.15.21,40.78-1.53,60.66,3.18,9,2.13,18,4.6,26.92,7.27,7.85,2.34,15.35,7.84,23.51,10.24,31.15,9.16,64.71,7.29,97,7.09l.24-4.11c-.81,0-1.49.08-1.91.06l-41.07-1.76c-17.24-.74-35.67.35-52.6-4.23-8.6-2.33-16.26-6.65-24.53-10.06-8.61-3.55-17.8-5.3-26.73-7.13-12-2.47-24.12-2.89-36.24-2.86Z"/><path class="cls-3" d="M721.68,546c-8.62,0-17.24.49-25.9,1.22a70.07,70.07,0,0,0-19.33,6c-6,3-11.08,8.17-17,11-12.78,6.1-26.81,9.1-40.4,11,17.45,1.73,35.11,9.74,51.22,17.85,17.49,8.8,39.57,8.47,58.21,9.86,16.71,1.25,33.45,1.92,50.2,2.13l.18-3.24-6-.25c-10.08-.43-20.15-1.11-30.23-1.75-19.24-1.24-38.7-3.25-57.68-7.36-16.58-3.59-32.12-14.49-48.95-16,12.66-2,23.06-7.32,34.1-14.76,12.65-8.53,24.15-12,38.39-13a231.26,231.26,0,0,1,43.15.62c10.26,1.19,19.91,4.65,29.76,7.15l.06-1.68c-2.77-.59-5.64-1.88-8.33-2.57a205.42,205.42,0,0,0-25.54-4.81A208.5,208.5,0,0,0,721.68,546Z"/><path class="cls-3" d="M719.81,552.58c-21,0-45,3.95-59.48,24.6,17.18,15.41,45.08,16.22,65.65,18.29,17.67,1.77,35.49,1.27,53.24.54l.09-1.52c-5.77,0-11.59-.65-17-.89-10.54-.45-21.08-1.13-31.62-1.77-20.12-1.21-42-4.44-60.33-15.31,18.48-16.15,39.63-22.15,62.33-21,16.52.83,32.32,4.88,48.41,7.86l.12-3a18.24,18.24,0,0,1-4.2-.86c-5.85-2.42-12-3.5-18.08-4.36a294.89,294.89,0,0,0-35-2.52c-1.38,0-2.77,0-4.18,0Z"/><path class="cls-3" d="M631.23,573.93l-45.26.41-24.4.22,0,2.21,65.91-.89c1.26-.55,2.49-1.31,3.71-2Z"/><path class="cls-3" d="M724.13,539.52c-19.19.06-35.92,1-40.2,2.13-8,2.07-16.53,6.08-24.12,9.82-7.07,3.47-14.5,4.73-22.06,6-19.85,3.37-40.4,2.24-60.39,2.79l-15.89.43-1.11,3.7,1.07.48c13.66-.08,27.31-.28,41-.77,17.59-.64,38.68,1.44,54.9-7.82,33.94-19.37,74.22-16.77,110.64-12.28a113.81,113.81,0,0,1,13.82,2.65l.12-3.36c-13.8-2.9-37.17-3.87-57.74-3.8Z"/><path class="cls-3" d="M724.1,532.41c-13.94.07-27.81,1-41.77,2.41-16.39,1.62-32.59,5.62-49,7.36-19.36,2.05-38.74,3.51-58.15,4.65-4.3.26-8.61.42-12.91.57l0,3c33.18.14,66.65,1.29,99.19-6.83,17.83-4.46,35-7.69,53.27-8.27,18-.57,36.4.9,54.31,3.09,4.33.52,8.62,1.12,12.88,2l.11-2.93c-4.24-.75-8.35-1.14-9.84-1.36-9.69-1.43-19.37-2.54-29.12-3.11q-9.55-.55-19-.5Z"/><path class="cls-3" d="M712.46,522.73q-15.4,0-30.8.41c-39.53.9-79.07.87-118.62,1.18l-1,.46,0,3c33.89,0,67.74.48,101.64-.52,34.34-1,69.33-5,103.71-1.32L760,523.46c-5.58-.21-11.15-.4-16.73-.5q-15.39-.27-30.79-.23Z"/><path class="cls-3" d="M781.29,501.86c-2.63.07-5.24.18-7.87.29a226.14,226.14,0,0,0-26.33,2.5c-19.21,3.15-38,7-57.39,7.93a254.83,254.83,0,0,1-58.45-3.93c-18.77-3.43-37.88-4.31-56.82-5.68-4.74-.34-9.48-.69-14.22-.91l-.1,2.93a390.62,390.62,0,0,1,42.18.93c18.3,1.45,36.22,7.37,54.62,8.7a360.93,360.93,0,0,0,60.17-.84c18.28-1.71,36.16-5.31,54.59-5.61l1.11,0-5.8-3,13.95-1.6.37-1.65Z"/><path class="cls-3" d="M766.44,491.82c-6.57,0-13.14.17-19.72.47-9.43.43-18.85,1.17-28.24,2.41-9,1.18-17.14,5.09-26,6.61a176,176,0,0,1-38.2,1.91l-.13.95-8.59.14L644,502.54c-21.55-1.77-43.12-5.51-64.57-6.93-2.24-.15-11-1.05-18.95-1.16l-.11,3.43c14.25.2,28.51.78,42.71,2.23,19,1.93,37.92,7.05,57,8.92,18.57,1.83,35.54.55,53.54-5.08,17.53-5.49,35.43-10,53.59-9.23,5.18.22,10.34.45,15.52.66l.7-3.15c-3.47-.12-6.95-.24-10.42-.32q-3.28-.09-6.57-.09Z"/><path class="cls-3" d="M737.66,561.4c-18,.21-37.12,2.71-52.45,15.12,17.55,11.31,39.39,11,58.82,12,12,.62,23.81-.22,35.67-.84l.13-2.2-2.4-1.37c-2.88-.19-5.75-.45-8.7-.77-7-.76-14.05,1.18-21,1.89-15.28,1.56-33.34-.81-47.19-9.36,16.24-11.41,33.37-15,51.71-9.18,7.36,2.32,13.79,6.41,21.47,7.59l.4,0,6.63-1.15.19-4.73c-13.23-1.75-26.39-7-39.7-7.06-1.19,0-2.39,0-3.58,0Z"/><path class="cls-3" d="M715.36,575.23c12.92,9.2,30.08,5.82,43.92,2.6C745.26,568.77,730,568.83,715.36,575.23Z"/><path class="cls-3" d="M765.24,481.46l-15.19,3.72,5.37-.11,29.75-.73.6-2.77-12.28-.07-8.26,0Zm-71.76,9.38c-8.58,2.84-17.25,5.32-26.64,5.18a88,88,0,0,1-11.53-1l-.66,5.14c15.5.76,35.94.41,50.23-6.79,1.33-.68,2.66-1.28,4-1.84l-15.39-.73Zm-75.64,1.29c2.76,1.14,5.51,2.28,8.25,3.18a94.55,94.55,0,0,0,14.49,3.48l-5.93-6.61-16.81-.05Z"/><path class="cls-3" d="M656.1,489.11l-.3,2.32q2.94.45,5.91.73a57,57,0,0,0,19.2-1.89l-24.81-1.16Z"/><path class="cls-3" d="M787,476.1l-7.12,1.75,6.74-.07.37-1.68Z"/><path class="cls-4" d="M616.06,607.55c2.09.6,4.15,1.23,6.21,1.91C620.23,608.78,618.17,608.13,616.06,607.55Zm7.61,2.39c9.79,3.42,19,7.9,28.73,11.88,12.78,5.2,26.14,8.09,39.5,10A131,131,0,0,0,669.12,640c.72-.28,1.43-.56,2.16-.82,16.46-5.83,33.58-6.74,50.6-7.77-19.41,0-37.7-1.14-56.68-6.63-14-4-27.59-10.14-41.53-14.83Zm45.45,30a112,112,0,0,0-11.33,5.34C661.55,643.5,665.32,641.69,669.12,640Zm-11.33,5.34c-4.42,2.15-8.85,4.32-13.3,6.38l1.52,0c3.93-2.08,7.85-4.28,11.78-6.36Z"/><path class="cls-4" d="M573.46,607.71l-3.69.5c9.06,1.52,18.07,3.55,27,5.58l3.34.75c-1.86-.57-3.72-1.17-5.61-1.84a115.88,115.88,0,0,0-21-5Zm26.79,6.88c9.27,2.85,18.25,5,26.66,9.95-8-5.25-18.36-8-26.66-9.95Zm27,10.18a30.07,30.07,0,0,1,7.85,7.38c-10.13,8.79-21,16.18-32.85,20.53,12.56-3.85,25.9-9.3,34.51-20.53A49.94,49.94,0,0,0,627.26,624.77Zm-25,27.91c-1.18.37-2.36.73-3.52,1.07l.57,0c1-.32,2-.67,3-1Z"/><path class="cls-4" d="M617.47,632.27c-9-9.1-20.61-13.29-31.75-16.62,10,1.59,21.19,6,29.37,13.33,5.37,4.84,2.5,5.81-2.79,9.33a163.82,163.82,0,0,1-17.41,9.7c7.22-3.46,17.93-7.7,22.58-15.74"/><path class="cls-4" d="M606.89,632.27a78,78,0,0,0-32-14.32c12.05,1.74,23.06,7.14,33.41,14.75-8.78,6.59-18.57,11-28.47,14.19a117.53,117.53,0,0,0,27.06-14.62"/><path class="cls-4" d="M585.69,632.4c-4.07-.12-13.44,7.63-17,9a63.74,63.74,0,0,1-11.47,3.18l-.06.77a68.47,68.47,0,0,0,29.65-12.7,2.08,2.08,0,0,0-1.09-.29Z"/><path class="cls-4" d="M586.77,632.7c-7.88-4.26-16.37-8.29-25-9a48.26,48.26,0,0,1,12,3.12c3.67,1.38,9.38,6.64,13,5.85"/><path class="cls-4" d="M625.93,598.44a99.09,99.09,0,0,1,29.54,8.7c8.49,4.09,17,10.37,26.2,11.69C662.46,614.5,645.36,602.65,625.93,598.44Z"/><path class="cls-4" d="M633,588.46c8.1,2.31,17.92,3.2,25.44,7.57,6.88,4,14.56,8.62,22.19,9.78-6.76-1.45-14.85-3.27-20.69-7.89-7.23-5.73-18.63-6.77-26.94-9.46"/><path class="cls-4" d="M625.44,576.31a191.84,191.84,0,0,1,31.48,9.79c9.69,4.07,18.41,11.12,29,11.6-20.79-4.08-39.46-18.75-60.47-21.39"/><path class="cls-4" d="M682.59,587.89c-4.6-1.57-22-5.8-20.07-12.84,2.45-8.91,18.79-14.72,25-17.26-8.59,2.3-19.56,6.94-25.09,15.91-3.31,5.38.6,6.44,5.09,8.9C672.35,585.23,677.59,586.61,682.59,587.89Z"/><path class="cls-4" d="M633.2,572.28c11.31-1.59,23.25-4.56,32.71-12.76C656.92,567.69,643.91,569.87,633.2,572.28Z"/><path class="cls-4" d="M641.21,556.66c16.51-.5,29.93-13.36,46.35-15.35C671.32,543.84,657.34,554.36,641.21,556.66Z"/><path class="cls-4" d="M685.17,576.53c9.12-6.93,19.46-10.51,29.91-12.93-10,1.88-19.48,6.53-28.22,12.71,7.35,5.2,16.49,7,24.69,9-8.5-1.43-19.15-2.57-26.38-8.76"/><path class="cls-4" d="M715.36,575.23c5.2-3.42,11.44-5.51,17.36-5a27.68,27.68,0,0,0-16,5.21,41.23,41.23,0,0,0,7.76,3.47C721.38,578.33,717.89,577.59,715.36,575.23Z"/><path class="cls-4" d="M613.94,543.78c29.18-1.26,57.62-9.81,86.78-10.85-29.18,2-57.71,7.69-86.78,10.85"/><path class="cls-4" d="M611.82,507.35c18.3,3.95,36.8,7.17,55.39,7.8-18.63.26-37.23-2.92-55.39-7.8"/><path class="cls-4" d="M610.06,501.27c19.61,4.35,39.34,7.75,59.27,8.68-19.82-1.67-39.61-5.3-59.27-8.68"/><path class="cls-4" d="M613.94,492.13c2.46.82,4.92,1.62,7.43,2.32A137.08,137.08,0,0,0,640,498.18l-.83-.91c-6.16-1.45-12.24-3.29-18.32-5.11l-6.95,0Zm40.79,7.48,0,.16c1.92.14,3.86.21,5.8.2C658.59,499.87,656.66,499.74,654.73,499.61Z"/><path class="cls-4" d="M749.76,565.9c8.67,3.34,16.66,8.42,25.92,8.68C766.65,573.35,758.54,568.51,749.76,565.9Z"/><path class="cls-4" d="M754,584.56c4.12-.84,8.54-2,12.7-1.31C763,580.73,757.67,583.05,754,584.56Z"/><path class="cls-4" d="M762.09,559c6.47,1,12.65,3.63,19,5l0-.71c-6.22-2.06-12.72-4.26-19-4.27Z"/><path class="cls-4" d="M758.58,542.9c7.07,1.25,15.41,2,23.15,4l0-.18a122.82,122.82,0,0,0-23.17-3.8Z"/><path class="cls-4" d="M752.23,536.84A184.75,184.75,0,0,1,782,541.4l0-1a143,143,0,0,0-29.76-3.56Z"/><path class="cls-4" d="M747.28,524.8c-.66,0-1.31,0-2,0a165.44,165.44,0,0,1,17.26.91c2.14.24,4.31.44,6.48.68l-3.34-1.09c-6.13-.47-12.31-.59-18.42-.54Zm-2,0c-4.53,0-9,.09-13.54.3C736.21,525,740.74,524.9,745.3,524.84Z"/><path class="cls-4" d="M694.32,490.89c-2.5,1-5,2-7.5,2.74,3.94.21,7.89-.95,11.82-2.54l-4.32-.2Z"/><path class="cls-1" d="M793.28,488.37l74.14.18,10.89,12.12,8.6-.13,2-15.06,65.59,3,65.33-16.07-6.09,27.42-14,1.58,15.15,8-1,5.48-22.5,4.46,23.74,7.81-1.6,42.38-17.15,3,16.23,9.3-1.76,30.08-24.63,5.86,23.69,3.72,3.71,38.19c-70.45-15.22-146.41-14-224.63-6l3.67-47.88,23.6-3.11L794.72,599l-.38-28.68,7.45-5.59-8.64-4,2.06-6.86,19.29-3-19.38-3.79-.34-26,16-7.09L792.52,513Z"/><path class="cls-2" d="M793.8,489l74.13.18,10.91,12.12,8.59-.13,2-15.06L955,489.14l65.33-16.07-6.09,27.42-14,1.59L1015.4,510l-1,5.48L991.9,520l23.74,7.82-1.6,42.37-17.16,3,16.25,9.3-1.76,30.08-24.64,5.86,23.68,3.72,3.73,38.19c-70.46-15.22-146.42-14-224.64-6l3.68-47.88,23.59-3.11-21.54-3.75-.37-28.68,7.45-5.58-8.65-4,2.06-6.86,19.31-3-19.4-3.79-.33-26,16-7.09-18.28-1.07Z"/><path class="cls-2" d="M1019.78,472.46l-65.33,16.06-65.58-3-2,15.06-8.59.13-10.9-12.13-74.13-.18-.76,24.6,18.27,1.09-16,7.09.34,25.94,19.39,3.79-19.3,3-2.07,6.86,8.65,4-7.45,5.59.37,28.69,21.54,3.75-23.59,3.11L789,653.73c78.22-8,154.17-9.24,224.63,6l-3.73-38.18-23.69-3.73,24.65-5.86,1.75-30.07-16.23-9.3,17.16-3,1.58-42.36-23.73-7.82,22.5-4.47,1-5.48-15.14-8,13.94-1.59,6.09-27.42Z"/><path class="cls-3" d="M811.39,603.39,802,604.62c6.87,1,13.69,2.25,20.51,3.73,16.45,3.54,32.06,8.74,46.22,19.85-9.38,11.13-23.95,18-36.91,21.9,6.26-.42,12.5-.81,18.72-1.12a159.84,159.84,0,0,0,36.16-20.78c-22.61-14.58-49.21-20.75-75.35-24.81Z"/><path class="cls-3" d="M792.61,606.66l-.12,1.39c.48,0,1,0,1.28.05a189.09,189.09,0,0,1,20,2.9c13.41,2.66,25.46,7.81,36.46,17.63-6.81,10.9-21.33,15.9-31.74,18.67-3.22.86-18.75,2.85-29.38,4.82l-.13,1.6c5.88-.6,11.74-1.13,17.6-1.65l.07,0c17.71-3.27,35-9.73,49.21-23-15.51-17.34-41.3-20.68-63.27-22.4Z"/><path class="cls-3" d="M792.29,610.71l-.07.95c16.51,1.79,32.58,8,47.44,17-8.94,7.63-19.68,11.89-30,15.63-2.44.88-12.34,2.43-20.25,4l-.18,2.36c19.52-2.48,38.37-8.46,55-22-6.32-8.34-18.58-11.46-27.28-13.49-8.22-1.92-16.42-3.32-24.67-4.43Z"/><path class="cls-3" d="M791.63,619.45,789.89,642c10.41-1.84,20.37-6.93,29.67-12.92a108.06,108.06,0,0,0-27.93-9.61Z"/><path class="cls-3" d="M794.64,592.76v1.52a12.14,12.14,0,0,1,1.3.05c7.54.72,15,1.59,22.48,2.77a289.34,289.34,0,0,1,38.72,9.06c23.7,7.16,45,19.93,69.81,22-12.89,3.15-25.38,6.92-37.56,13.09-3.51,1.78-6.77,4.7-10.19,6.77,2.52,0,5-.08,7.55-.09,9.93-4.44,19.8-9.05,30-12.45,16.06-5.34,32.54-4.27,49-4.61L1009,630c.44,0,1,0,1.7.09l-.5-5.22c-39.73,0-80.49,2.94-119.15-10-9.22-3.09-17.78-7.93-27-11s-19.13-4.61-28.71-6.36a366.67,366.67,0,0,0-40.73-4.71Z"/><path class="cls-3" d="M1004.61,640.69a412.21,412.21,0,0,0-79.15,8c6.6.31,13.16.74,19.7,1.25,20.14-2.28,40.53-2.65,61.16-3.72,1-.05,3.3.11,6,.2l-.56-5.65q-3.59-.06-7.17,0Z"/><path class="cls-3" d="M1010.57,650.23c-14,.1-28,.78-42,2q9,1.08,17.86,2.45l22.79-.68c.72,0,2.16.09,3.87.2l-.38-4Z"/><path class="cls-3" d="M1013.4,657.45l-8.9.41c2.78.54,5.56,1.09,8.33,1.68l.78,0-.21-2Z"/><path class="cls-3" d="M794.53,585.17v1.36c3.1.22,6.19.52,9.28.82,18.61,1.84,37.57,3.56,56,7.22,17.79,3.54,33.63,14.87,51,19.4,19.2,5,39.86,4.07,59.41,4.48,7,.15,14.09.18,21.13.16l-5.14-.82,15.3-3.63-3,0c-19.25.13-38.59-.18-57.8-2.09-9.61-1-19.19-2-28.76-3.5-7.77-1.22-15.85-6.39-23.65-8.81-30.83-9.57-62.09-13-93.72-14.63Z"/><path class="cls-3" d="M828.15,579.2c-7.28,0-14.58.21-21.89.21H794.45l0,2,8.43.09c20.15.21,40.78-1.53,60.66,3.18,9,2.14,18,4.6,26.91,7.27,7.85,2.34,15.36,7.84,23.52,10.24,31.14,9.17,64.7,7.29,97,7.09l.25-4.11c-.82,0-1.5.09-1.91.07l-41.08-1.77c-17.23-.74-35.66.36-52.59-4.22-8.61-2.33-16.27-6.66-24.54-10.07-8.61-3.55-17.79-5.3-26.73-7.13-12-2.46-24.11-2.89-36.24-2.86Z"/><path class="cls-3" d="M954.45,542.38c-8.62,0-17.24.49-25.89,1.23a69.51,69.51,0,0,0-19.33,6c-6,3-11.09,8.18-17,11-12.78,6.09-26.82,9.1-40.4,11,17.44,1.73,35.1,9.75,51.22,17.85,17.49,8.8,39.56,8.47,58.21,9.86,16.71,1.25,33.45,1.92,50.19,2.14l.18-3.25-6-.25c-10.09-.43-20.16-1.1-30.24-1.75-19.23-1.24-38.7-3.25-57.67-7.36-16.58-3.59-32.12-14.49-49-16,12.66-2,23-7.32,34.1-14.76,12.64-8.53,24.15-12,38.38-13a230.39,230.39,0,0,1,43.15.61c10.27,1.2,19.91,4.65,29.77,7.15l.05-1.68c-2.76-.59-5.64-1.88-8.33-2.56a203.49,203.49,0,0,0-25.53-4.82,206.73,206.73,0,0,0-25.9-1.45Z"/><path class="cls-3" d="M952.58,548.94c-21.05,0-45,3.95-59.48,24.6,17.18,15.41,45.09,16.23,65.66,18.29,17.66,1.77,35.48,1.27,53.23.54l.1-1.52c-5.77-.05-11.6-.65-17-.88-10.54-.46-21.09-1.14-31.62-1.78-20.12-1.21-42-4.44-60.34-15.31,18.49-16.15,39.63-22.15,62.33-21,16.53.83,32.33,4.88,48.42,7.86l.11-3a18.25,18.25,0,0,1-4.19-.86c-5.86-2.42-12-3.49-18.09-4.36a296.7,296.7,0,0,0-35-2.52c-1.38,0-2.78,0-4.18,0Z"/><path class="cls-3" d="M864,570.29l-45.26.41-24.4.23,0,2.2,65.92-.89c1.25-.54,2.48-1.3,3.71-2Z"/><path class="cls-3" d="M956.9,535.88c-19.18.07-35.92,1-40.19,2.14-8,2.07-16.53,6.07-24.13,9.81-7.07,3.47-14.49,4.73-22.06,6-19.85,3.37-40.4,2.24-60.39,2.79l-15.88.43-1.11,3.71,1.07.47c13.65-.08,27.31-.27,40.95-.77,17.59-.64,38.69,1.45,54.91-7.81,33.93-19.38,74.22-16.77,110.64-12.29a114.05,114.05,0,0,1,13.81,2.66l.13-3.37c-13.81-2.9-37.17-3.86-57.75-3.79Z"/><path class="cls-3" d="M956.87,528.77c-13.93.07-27.8,1-41.77,2.41-16.38,1.62-32.58,5.62-49,7.36-19.36,2.05-38.75,3.51-58.16,4.66-4.3.25-8.6.42-12.91.56l0,3c33.18.13,66.64,1.29,99.18-6.84,17.83-4.45,35-7.69,53.28-8.27,18-.57,36.39.9,54.31,3.09,4.33.53,8.62,1.12,12.87,2l.11-2.93c-4.24-.76-8.35-1.15-9.84-1.37-9.69-1.43-19.36-2.53-29.11-3.11q-9.55-.56-19-.5Z"/><path class="cls-3" d="M945.23,519.1q-15.4,0-30.79.4c-39.53.9-79.08.87-118.62,1.18l-1,.46,0,3c33.89,0,67.74.48,101.64-.52,34.35-1,69.33-5,103.71-1.32l-7.42-2.45c-5.58-.21-11.14-.4-16.72-.5q-15.4-.27-30.8-.22Z"/><path class="cls-3" d="M1014.06,498.22q-3.93.12-7.87.3A223.79,223.79,0,0,0,979.87,501c-19.21,3.16-38,7-57.39,7.93A254.83,254.83,0,0,1,864,505c-18.78-3.43-37.89-4.3-56.83-5.68-4.73-.34-9.48-.69-14.22-.91l-.09,2.93a387.89,387.89,0,0,1,42.17.94c18.3,1.45,36.22,7.36,54.63,8.7a360.93,360.93,0,0,0,60.17-.85c18.28-1.7,36.16-5.31,54.58-5.61l1.11,0-5.79-3,14-1.59.36-1.66Z"/><path class="cls-3" d="M999.21,488.18c-6.57,0-13.14.18-19.71.48-9.44.43-18.85,1.17-28.25,2.4-9,1.19-17.14,5.09-26,6.61A174.83,174.83,0,0,1,887,499.58l-.13,1-8.59.13-1.59-1.77c-21.54-1.77-43.12-5.51-64.56-6.93-2.25-.15-11-1-19-1.16l-.11,3.43c14.26.2,28.52.78,42.71,2.23,19,1.93,37.92,7,57.05,8.93,18.57,1.82,35.53.54,53.53-5.09,17.53-5.49,35.44-10,53.59-9.22,5.18.21,10.35.44,15.53.66l.69-3.16c-3.47-.11-6.94-.23-10.41-.32q-3.3-.07-6.58-.09Z"/><path class="cls-3" d="M970.43,557.76c-18,.21-37.12,2.71-52.44,15.13,17.55,11.31,39.39,11,58.82,12,12,.62,23.8-.21,35.67-.84l.12-2.2-2.4-1.36c-2.87-.2-5.74-.45-8.7-.78-7-.76-14,1.18-21,1.89-15.28,1.56-33.34-.81-47.18-9.36,16.24-11.41,33.36-15,51.71-9.18,7.35,2.33,13.79,6.41,21.46,7.59l.41.05,6.63-1.16.19-4.73c-13.24-1.74-26.4-7-39.71-7.06Z"/><path class="cls-3" d="M948.14,571.59c12.91,9.2,30.08,5.83,43.91,2.61C978,565.13,962.74,565.19,948.14,571.59Z"/><path class="cls-3" d="M998,477.82l-15.19,3.73,5.38-.12,29.74-.72.61-2.78c-4.09,0-8.19,0-12.28-.06l-8.27-.05Zm-71.75,9.38c-8.59,2.85-17.26,5.32-26.64,5.18a89.79,89.79,0,0,1-11.53-.95l-.67,5.13c15.5.76,35.94.41,50.23-6.79,1.34-.67,2.67-1.28,4-1.84l-15.38-.73Zm-75.65,1.3c2.77,1.14,5.51,2.27,8.26,3.18a93.24,93.24,0,0,0,14.48,3.47l-5.93-6.61-16.81,0Z"/><path class="cls-3" d="M888.87,485.48l-.29,2.31c2,.3,3.93.55,5.9.73a56.67,56.67,0,0,0,19.2-1.89l-24.81-1.15Z"/><path class="cls-3" d="M1019.78,472.46l-7.13,1.75c2.25,0,4.51,0,6.75-.07l.37-1.68Z"/><path class="cls-4" d="M848.84,603.92c2.08.6,4.14,1.23,6.2,1.91C853,605.14,851,604.49,848.84,603.92Zm7.61,2.38c9.79,3.42,19,7.91,28.72,11.88,12.79,5.2,26.15,8.09,39.5,10a131.43,131.43,0,0,0-22.77,8.15c.71-.28,1.43-.56,2.16-.81,16.45-5.84,33.57-6.75,50.6-7.77-19.42,0-37.71-1.15-56.68-6.64-14-4-27.6-10.14-41.53-14.83Zm45.44,30.05a113,113,0,0,0-11.33,5.34C894.32,639.86,898.09,638.06,901.89,636.35Zm-11.33,5.34c-4.42,2.15-8.84,4.32-13.29,6.38l1.51,0c3.94-2.08,7.85-4.28,11.78-6.36Z"/><path class="cls-4" d="M806.24,604.07l-3.69.5c9.05,1.52,18.06,3.55,27,5.59,1,.24,2.2.48,3.34.75-1.87-.58-3.73-1.18-5.62-1.84a115.8,115.8,0,0,0-21-5ZM833,611c9.27,2.85,18.26,5,26.66,9.95-8-5.25-18.36-8-26.66-9.95Zm27,10.18a30.07,30.07,0,0,1,7.85,7.38c-10.12,8.8-21,16.18-32.84,20.54,12.55-3.85,25.9-9.31,34.51-20.54A50,50,0,0,0,860,621.13Zm-25,27.92c-1.19.36-2.36.73-3.53,1.06l.58,0c1-.32,2-.66,2.95-1Z"/><path class="cls-4" d="M850.24,628.63c-9-9.09-20.61-13.28-31.75-16.61,10,1.58,21.19,6,29.37,13.32,5.37,4.84,2.5,5.81-2.79,9.33a162,162,0,0,1-17.41,9.71c7.23-3.46,17.93-7.71,22.58-15.75"/><path class="cls-4" d="M839.66,628.63a77.78,77.78,0,0,0-32-14.31c12.05,1.73,23.06,7.13,33.4,14.74-8.77,6.6-18.56,11-28.46,14.19a117.67,117.67,0,0,0,27-14.62"/><path class="cls-4" d="M818.47,628.76c-4.07-.12-13.44,7.63-17,9A63.29,63.29,0,0,1,790,641l-.05.78a68.76,68.76,0,0,0,29.65-12.7,2,2,0,0,0-1.09-.3Z"/><path class="cls-4" d="M819.55,629.07c-7.88-4.27-16.38-8.29-25-9a49.33,49.33,0,0,1,12,3.12c3.67,1.38,9.38,6.65,13,5.86"/><path class="cls-4" d="M858.71,594.8a99.14,99.14,0,0,1,29.53,8.71c8.49,4.08,17,10.36,26.2,11.68C895.23,610.86,878.13,599,858.71,594.8Z"/><path class="cls-4" d="M865.77,584.82c8.1,2.31,17.91,3.2,25.43,7.57,6.88,4,14.57,8.62,22.19,9.78-6.75-1.44-14.85-3.26-20.68-7.89-7.24-5.72-18.64-6.76-26.94-9.46"/><path class="cls-4" d="M858.21,572.68a192.17,192.17,0,0,1,31.48,9.78c9.7,4.07,18.42,11.12,29,11.6-20.79-4.08-39.47-18.75-60.48-21.38"/><path class="cls-4" d="M915.36,584.26c-4.6-1.58-22-5.8-20.07-12.84,2.45-8.91,18.79-14.72,25.05-17.27-8.59,2.3-19.56,6.94-25.09,15.91-3.32,5.38.59,6.44,5.08,8.9C905.13,581.59,910.36,583,915.36,584.26Z"/><path class="cls-4" d="M866,568.64c11.31-1.59,23.24-4.56,32.7-12.75C889.7,564.05,876.68,566.23,866,568.64Z"/><path class="cls-4" d="M874,553c16.5-.5,29.92-13.37,46.35-15.36C904.09,540.2,890.12,550.73,874,553Z"/><path class="cls-4" d="M917.94,572.89c9.13-6.93,19.47-10.5,29.91-12.92-10,1.87-19.48,6.53-28.22,12.71,7.36,5.2,16.49,7,24.7,9-8.51-1.44-19.16-2.58-26.39-8.77"/><path class="cls-4" d="M948.14,571.59c5.2-3.42,11.43-5.5,17.35-5a27.62,27.62,0,0,0-16,5.21,40.06,40.06,0,0,0,7.76,3.47C954.15,574.69,950.66,574,948.14,571.59Z"/><path class="cls-4" d="M846.71,540.14c29.18-1.26,57.62-9.81,86.79-10.84-29.19,2-57.72,7.69-86.79,10.84"/><path class="cls-4" d="M844.6,503.71c18.29,4,36.8,7.17,55.38,7.81-18.63.25-37.23-2.93-55.38-7.81"/><path class="cls-4" d="M842.84,497.63c19.6,4.35,39.34,7.76,59.26,8.68-19.81-1.67-39.6-5.29-59.26-8.68"/><path class="cls-4" d="M846.71,488.5c2.46.81,4.93,1.61,7.43,2.31a134,134,0,0,0,18.68,3.73l-.84-.91c-6.16-1.45-12.24-3.29-18.32-5.11l-6.95,0Zm40.8,7.47,0,.16c1.92.14,3.85.22,5.79.2C891.37,496.23,889.44,496.1,887.51,496Z"/><path class="cls-4" d="M982.53,562.27c8.68,3.34,16.67,8.42,25.93,8.67C999.42,569.71,991.31,564.87,982.53,562.27Z"/><path class="cls-4" d="M986.76,580.92c4.12-.84,8.54-1.95,12.71-1.3C995.8,577.1,990.45,579.41,986.76,580.92Z"/><path class="cls-4" d="M994.87,555.32c6.46,1,12.64,3.64,19,5l0-.7c-6.23-2.06-12.73-4.27-19-4.28Z"/><path class="cls-4" d="M991.35,539.27c7.08,1.24,15.41,2,23.15,4l0-.18a121.87,121.87,0,0,0-23.17-3.79Z"/><path class="cls-4" d="M985,533.2a184,184,0,0,1,29.73,4.57l0-1A142.29,142.29,0,0,0,985,533.2Z"/><path class="cls-4" d="M980.06,521.16l-2,.05a165.24,165.24,0,0,1,17.25.91c2.15.23,4.32.43,6.48.68l-3.33-1.09c-6.14-.47-12.31-.6-18.42-.55Zm-2,.05c-4.53,0-9.05.08-13.55.29C969,521.39,973.52,521.27,978.08,521.21Z"/><path class="cls-4" d="M927.09,487.25c-2.49,1-5,2-7.5,2.75,3.95.2,7.9-1,11.83-2.55l-4.33-.2Z"/><path class="cls-1" d="M1023.14,486.92l74.14.18,10.9,12.12,8.6-.14,2-15.06,65.58,3.05L1249.64,471l-6.09,27.42L1229.61,500l15.14,7.95-1,5.48-22.51,4.46,23.74,7.82-1.6,42.37-17.15,3,16.24,9.3-1.76,30.09-24.63,5.86,23.68,3.72,3.72,38.19c-70.45-15.23-146.42-14-224.64-6l3.68-47.87,23.59-3.11-21.53-3.75-.38-28.69,7.45-5.58-8.64-4,2.06-6.86,19.3-3L1025,545.63l-.34-26,16-7.09-18.28-1.07Z"/><path class="cls-2" d="M1023.67,487.53l74.13.18,10.9,12.12,8.59-.14,2-15.06,65.58,3.05,65.33-16.07L1244.08,499l-14,1.59,15.15,7.95-1,5.49-22.5,4.45,23.73,7.82-1.6,42.38-17.15,3L1243,581l-1.76,30.08L1216.59,617l23.69,3.72,3.72,38.19c-70.46-15.22-146.41-14-224.63-6L1023,605l23.6-3.11-21.54-3.75-.37-28.69,7.45-5.58-8.65-4,2.06-6.86,19.3-3-19.39-3.79-.33-26,16-7.09-18.28-1.07Z"/><path class="cls-2" d="M1249.64,471l-65.32,16.06L1118.73,484l-2,15.06-8.59.14-10.9-12.13-74.14-.18-.76,24.6,18.28,1.09-16,7.08.33,26,19.4,3.79-19.31,3-2.07,6.86,8.65,4-7.45,5.58.38,28.69,21.53,3.75-23.59,3.11-3.67,47.86c78.22-8,154.18-9.24,224.64,6l-3.74-38.19-23.68-3.72,24.64-5.86,1.76-30.08-16.24-9.29,17.16-3,1.59-42.36-23.74-7.81,22.51-4.48,1-5.47L1229.61,500l14-1.59,6.08-27.42Z"/><path class="cls-3" d="M1041.26,601.94l-9.35,1.23q10.3,1.51,20.5,3.72c16.46,3.55,32.07,8.75,46.22,19.85-9.37,11.14-23.94,18-36.9,21.9,6.25-.42,12.49-.81,18.71-1.11a160,160,0,0,0,36.17-20.79c-22.62-14.58-49.21-20.75-75.35-24.8Z"/><path class="cls-3" d="M1022.47,605.21l-.11,1.39c.48,0,.95,0,1.27,0a188.38,188.38,0,0,1,20,2.91c13.42,2.66,25.47,7.8,36.47,17.63-6.82,10.89-21.33,15.89-31.74,18.67-3.22.86-18.75,2.85-29.39,4.81l-.13,1.61c5.89-.6,11.75-1.14,17.6-1.66l.08,0c17.7-3.27,35-9.73,49.21-23-15.51-17.34-41.31-20.68-63.27-22.39Z"/><path class="cls-3" d="M1022.15,609.25l-.07,1c16.51,1.78,32.59,8,47.44,17-8.94,7.64-19.67,11.89-30,15.63-2.44.89-12.33,2.43-20.25,4.05l-.18,2.36c19.53-2.48,38.38-8.46,55-22-6.33-8.33-18.58-11.45-27.29-13.49-8.22-1.92-16.42-3.31-24.67-4.43Z"/><path class="cls-3" d="M1021.49,618l-1.74,22.53c10.41-1.84,20.38-6.93,29.67-12.93a107.9,107.9,0,0,0-27.93-9.6Z"/><path class="cls-3" d="M1024.5,591.3l0,1.53c.5,0,1,0,1.29,0,7.55.73,15,1.6,22.49,2.77a289.38,289.38,0,0,1,38.72,9.07c23.7,7.16,45,19.92,69.8,22-12.88,3.15-25.38,6.91-37.56,13.08-3.5,1.78-6.76,4.71-10.19,6.77l7.55-.09c9.93-4.43,19.8-9,30.05-12.45,16-5.33,32.53-4.27,49-4.61l43.17-.91c.45,0,1,0,1.7.1l-.5-5.22c-39.72,0-80.49,2.93-119.15-10-9.22-3.08-17.78-7.92-27-11s-19.13-4.6-28.7-6.36a366.83,366.83,0,0,0-40.74-4.7Z"/><path class="cls-3" d="M1234.47,639.24a411.31,411.31,0,0,0-79.14,8c6.6.31,13.16.74,19.69,1.25,20.14-2.29,40.53-2.66,61.16-3.73,1-.05,3.31.12,6,.21l-.56-5.66c-2.38,0-4.78,0-7.16,0Z"/><path class="cls-3" d="M1240.43,648.77c-14,.1-28,.79-42,2q9,1.08,17.86,2.45l22.78-.68c.73,0,2.17.1,3.88.21l-.39-4h-2.13Z"/><path class="cls-3" d="M1243.27,656l-8.91.41c2.78.54,5.57,1.09,8.33,1.68l.78-.05-.2-2Z"/><path class="cls-3" d="M1024.39,583.72l0,1.36c3.09.21,6.18.51,9.27.82,18.62,1.84,37.57,3.56,56,7.22,17.79,3.53,33.63,14.87,51,19.4,19.2,5,39.86,4.07,59.41,4.47,7,.15,14.09.18,21.13.16l-5.13-.81,15.3-3.64-3,0c-19.26.13-38.6-.18-57.8-2.09-9.62-1-19.2-2-28.76-3.5-7.78-1.23-15.85-6.39-23.65-8.82-30.84-9.57-62.09-13-93.72-14.62Z"/><path class="cls-3" d="M1058,577.75c-7.29,0-14.58.2-21.9.2h-11.81l0,2,8.42.1c20.15.21,40.78-1.54,60.66,3.17,9,2.14,18,4.61,26.92,7.27,7.84,2.35,15.35,7.85,23.51,10.25,31.14,9.16,64.71,7.29,97,7.09l.24-4.12c-.81,0-1.49.09-1.91.07L1198.12,602c-17.24-.75-35.67.35-52.6-4.23-8.6-2.33-16.26-6.65-24.53-10.06-8.61-3.55-17.79-5.3-26.73-7.13-12-2.47-24.12-2.89-36.24-2.86Z"/><path class="cls-3" d="M1184.32,540.92c-8.62,0-17.24.5-25.91,1.23a70.11,70.11,0,0,0-19.32,6c-5.95,3-11.08,8.17-17,11-12.78,6.1-26.81,9.1-40.4,11,17.44,1.72,35.11,9.74,51.23,17.85,17.48,8.8,39.56,8.47,58.2,9.86,16.71,1.24,33.45,1.91,50.2,2.13l.18-3.25-6-.25c-10.09-.42-20.15-1.1-30.23-1.75-19.24-1.23-38.7-3.25-57.67-7.36-16.59-3.58-32.13-14.48-49-15.94,12.66-2,23.06-7.32,34.1-14.77,12.64-8.52,24.15-12,38.39-13a232.13,232.13,0,0,1,43.15.61c10.26,1.2,19.9,4.66,29.76,7.16l.06-1.68c-2.77-.59-5.64-1.88-8.33-2.57a200.11,200.11,0,0,0-51.43-6.27Z"/><path class="cls-3" d="M1182.45,547.49c-21,0-45,4-59.48,24.6,17.18,15.41,45.08,16.22,65.65,18.28,17.67,1.77,35.49,1.28,53.24.55l.09-1.52c-5.77,0-11.59-.66-17-.89-10.54-.45-21.08-1.14-31.62-1.77-20.12-1.21-42-4.44-60.33-15.31,18.48-16.16,39.63-22.15,62.33-21,16.52.83,32.32,4.88,48.41,7.86l.12-3a18.79,18.79,0,0,1-4.2-.86c-5.85-2.42-12-3.5-18.08-4.37a297,297,0,0,0-35-2.52c-1.37,0-2.77,0-4.17,0Z"/><path class="cls-3" d="M1093.87,568.84l-45.26.41-24.4.22,0,2.21,65.91-.89c1.26-.55,2.49-1.31,3.71-1.95Z"/><path class="cls-3" d="M1186.77,534.43c-19.18.06-35.92,1-40.2,2.13-8,2.07-16.53,6.08-24.13,9.81-7.06,3.48-14.49,4.74-22,6-19.85,3.37-40.4,2.25-60.39,2.8l-15.89.43-1.11,3.7,1.07.48c13.66-.08,27.31-.28,41-.77,17.59-.64,38.68,1.44,54.9-7.82,33.94-19.37,74.22-16.77,110.64-12.29a115.79,115.79,0,0,1,13.82,2.66l.12-3.36c-13.8-2.9-37.17-3.87-57.75-3.8Z"/><path class="cls-3" d="M1186.73,527.32c-13.93.06-27.8,1-41.77,2.4-16.38,1.63-32.58,5.63-48.94,7.36-19.37,2.06-38.75,3.51-58.16,4.66-4.3.25-8.61.42-12.91.57l0,3c33.18.13,66.65,1.29,99.19-6.84,17.83-4.45,35-7.68,53.27-8.26,18-.57,36.4.9,54.31,3.09,4.33.52,8.62,1.12,12.88,2l.11-2.93c-4.24-.76-8.35-1.14-9.84-1.36-9.7-1.43-19.37-2.54-29.12-3.11-6.37-.38-12.72-.53-19-.5Z"/><path class="cls-3" d="M1175.09,517.64q-15.39,0-30.79.41c-39.53.9-79.08.87-118.62,1.18l-1,.45,0,3c33.89,0,67.74.47,101.64-.52,34.35-1,69.33-5,103.71-1.32l-7.42-2.45c-5.58-.21-11.15-.41-16.73-.5q-15.39-.27-30.8-.23Z"/><path class="cls-3" d="M1243.93,496.77c-2.63.07-5.25.18-7.87.29a221.86,221.86,0,0,0-26.33,2.5c-19.21,3.15-38,6.95-57.39,7.93a255,255,0,0,1-58.46-3.93c-18.76-3.43-37.87-4.31-56.81-5.68-4.74-.35-9.48-.7-14.23-.91l-.09,2.93a390.56,390.56,0,0,1,42.18.93c18.3,1.45,36.21,7.37,54.63,8.7a361.9,361.9,0,0,0,60.16-.84c18.28-1.71,36.16-5.31,54.59-5.61l1.11,0-5.8-3.05,14-1.59.37-1.66Z"/><path class="cls-3" d="M1229.08,486.72c-6.57,0-13.14.18-19.72.48-9.43.43-18.84,1.17-28.24,2.41-9,1.18-17.15,5.09-26,6.61a176,176,0,0,1-38.2,1.91l-.13.95-8.59.14-1.59-1.77c-21.55-1.77-43.12-5.51-64.57-6.93-2.24-.15-11-1-18.95-1.16l-.11,3.43c14.25.19,28.51.78,42.71,2.23,18.94,1.93,37.92,7.05,57,8.92,18.56,1.83,35.52.55,53.53-5.09,17.52-5.48,35.42-10,53.59-9.22,5.18.22,10.34.45,15.52.66l.7-3.16c-3.47-.11-7-.23-10.42-.31-2.2-.06-4.38-.09-6.57-.1Z"/><path class="cls-3" d="M1200.3,556.3c-18,.22-37.12,2.71-52.45,15.13,17.55,11.31,39.39,11,58.82,12,12,.62,23.81-.22,35.67-.84l.13-2.2-2.4-1.37c-2.88-.19-5.75-.45-8.7-.77-7-.76-14,1.17-21,1.89-15.29,1.56-33.34-.81-47.18-9.36,16.23-11.41,33.36-15,51.7-9.18,7.36,2.32,13.79,6.4,21.47,7.59l.4,0,6.63-1.16.19-4.72c-13.23-1.75-26.39-7-39.7-7.07Z"/><path class="cls-3" d="M1178,570.14c12.92,9.19,30.08,5.82,43.92,2.6C1207.9,563.68,1192.6,563.74,1178,570.14Z"/><path class="cls-3" d="M1227.88,476.37l-15.19,3.72,5.37-.11,29.75-.73.6-2.77-12.28-.07-8.26,0Zm-71.76,9.38c-8.59,2.84-17.25,5.31-26.64,5.18a89.79,89.79,0,0,1-11.53-1l-.66,5.14c15.5.75,35.94.41,50.22-6.8,1.34-.67,2.67-1.27,4-1.84l-15.39-.72ZM1080.48,487c2.76,1.14,5.5,2.28,8.25,3.18a94.55,94.55,0,0,0,14.49,3.48l-5.93-6.61-16.81,0Z"/><path class="cls-3" d="M1118.73,484l-.29,2.32c2,.3,3.93.54,5.91.73a57,57,0,0,0,19.2-1.89L1118.73,484Z"/><path class="cls-3" d="M1249.64,471l-7.12,1.74q3.38,0,6.74-.06l.37-1.68Z"/><path class="cls-4" d="M1078.7,602.46c2.08.6,4.15,1.23,6.21,1.91C1082.87,603.68,1080.81,603,1078.7,602.46Zm7.61,2.39c9.79,3.42,19,7.9,28.73,11.88,12.78,5.2,26.14,8.09,39.5,10a130.74,130.74,0,0,0-22.78,8.16c.71-.28,1.43-.56,2.16-.82,16.46-5.83,33.58-6.74,50.6-7.77-19.41,0-37.7-1.15-56.68-6.63-14-4-27.59-10.14-41.53-14.83Zm45.44,30a112.78,112.78,0,0,0-11.32,5.33C1124.19,638.41,1128,636.6,1131.75,634.9Zm-11.32,5.33c-4.42,2.16-8.85,4.32-13.3,6.39l1.51,0c3.95-2.08,7.85-4.28,11.79-6.36Z"/><path class="cls-4" d="M1036.11,602.62l-3.7.49c9.06,1.53,18.06,3.56,27,5.59l3.34.75c-1.86-.57-3.72-1.17-5.61-1.84a116,116,0,0,0-21-5Zm26.78,6.88c9.27,2.84,18.25,5,26.66,10-8-5.25-18.36-8-26.66-10Zm27,10.17a30.27,30.27,0,0,1,7.85,7.39c-10.13,8.79-21,16.18-32.85,20.53,12.56-3.85,25.9-9.3,34.51-20.53A50,50,0,0,0,1089.9,619.67Zm-25,27.92c-1.18.37-2.35.73-3.52,1.07l.57,0c1-.31,2-.66,3-1Z"/><path class="cls-4" d="M1080.11,627.18c-9-9.1-20.62-13.29-31.75-16.62,10,1.59,21.19,6,29.36,13.33,5.38,4.84,2.5,5.81-2.78,9.32a162.16,162.16,0,0,1-17.41,9.71c7.22-3.46,17.92-7.7,22.58-15.74"/><path class="cls-4" d="M1069.52,627.18a77.93,77.93,0,0,0-32-14.32c12,1.74,23.06,7.13,33.4,14.75-8.77,6.59-18.56,11-28.46,14.18a117.63,117.63,0,0,0,27-14.61"/><path class="cls-4" d="M1048.33,627.31c-4.06-.12-13.44,7.63-17,9a64.57,64.57,0,0,1-11.47,3.18l-.05.77a68.48,68.48,0,0,0,29.64-12.7,2.05,2.05,0,0,0-1.09-.29Z"/><path class="cls-4" d="M1049.42,627.61c-7.89-4.26-16.38-8.29-25.06-9a48.79,48.79,0,0,1,12,3.13c3.67,1.38,9.38,6.64,13,5.85"/><path class="cls-4" d="M1088.57,593.35a99.18,99.18,0,0,1,29.54,8.7c8.49,4.08,17,10.37,26.2,11.68C1125.1,609.41,1108,597.56,1088.57,593.35Z"/><path class="cls-4" d="M1095.63,583.37c8.1,2.31,17.92,3.2,25.44,7.57,6.88,4,14.56,8.61,22.18,9.78-6.75-1.45-14.84-3.27-20.68-7.89-7.23-5.73-18.63-6.77-26.94-9.46"/><path class="cls-4" d="M1088.08,571.22a191.54,191.54,0,0,1,31.48,9.79c9.69,4.07,18.41,11.12,29,11.6-20.79-4.08-39.46-18.75-60.47-21.39"/><path class="cls-4" d="M1145.23,582.8c-4.61-1.57-22-5.8-20.07-12.84,2.45-8.91,18.79-14.72,25-17.26-8.59,2.29-19.56,6.93-25.09,15.91-3.31,5.38.59,6.44,5.09,8.9C1135,580.14,1140.23,581.52,1145.23,582.8Z"/><path class="cls-4" d="M1095.84,567.19c11.31-1.59,23.25-4.56,32.71-12.76C1119.56,562.6,1106.55,564.77,1095.84,567.19Z"/><path class="cls-4" d="M1103.85,551.57c16.51-.5,29.93-13.36,46.35-15.35C1134,538.75,1120,549.27,1103.85,551.57Z"/><path class="cls-4" d="M1147.81,571.44c9.12-6.93,19.46-10.51,29.91-12.93-10,1.88-19.49,6.53-28.22,12.71,7.35,5.2,16.49,7,24.69,9-8.5-1.44-19.15-2.57-26.38-8.76"/><path class="cls-4" d="M1178,570.14c5.2-3.42,11.44-5.51,17.36-5a27.74,27.74,0,0,0-16,5.2,40,40,0,0,0,7.76,3.47C1184,573.24,1180.53,572.5,1178,570.14Z"/><path class="cls-4" d="M1076.58,538.69c29.18-1.26,57.62-9.81,86.78-10.85-29.18,2-57.71,7.69-86.78,10.85"/><path class="cls-4" d="M1074.46,502.25c18.3,3.95,36.8,7.17,55.39,7.81-18.63.26-37.23-2.92-55.39-7.81"/><path class="cls-4" d="M1072.7,496.18c19.61,4.35,39.34,7.75,59.27,8.67-19.82-1.66-39.61-5.29-59.27-8.67"/><path class="cls-4" d="M1076.58,487c2.46.82,4.92,1.62,7.43,2.32a135.39,135.39,0,0,0,18.68,3.72l-.84-.9c-6.16-1.45-12.24-3.29-18.32-5.11l-7,0Zm40.79,7.48,0,.15c1.92.15,3.86.22,5.8.21C1121.24,494.78,1119.3,494.65,1117.37,494.52Z"/><path class="cls-4" d="M1212.4,560.81c8.67,3.34,16.66,8.42,25.92,8.68C1229.29,568.26,1221.18,563.42,1212.4,560.81Z"/><path class="cls-4" d="M1216.63,579.46c4.12-.83,8.54-2,12.7-1.3C1225.66,575.64,1220.31,578,1216.63,579.46Z"/><path class="cls-4" d="M1224.73,553.87c6.47,1,12.65,3.63,19,5l0-.7c-6.22-2.06-12.72-4.26-19-4.27Z"/><path class="cls-4" d="M1221.22,537.81c7.07,1.25,15.41,2,23.15,4l0-.18a122.82,122.82,0,0,0-23.17-3.8Z"/><path class="cls-4" d="M1214.87,531.75a184.75,184.75,0,0,1,29.72,4.56l0-1a143,143,0,0,0-29.76-3.56Z"/><path class="cls-4" d="M1209.92,519.71c-.67,0-1.31,0-2,0a165.44,165.44,0,0,1,17.26.91c2.14.24,4.31.44,6.48.68l-3.34-1.09c-6.13-.47-12.31-.59-18.42-.54Zm-2,0c-4.53,0-9,.09-13.54.3C1198.85,519.94,1203.38,519.81,1207.94,519.75Z"/><path class="cls-4" d="M1157,485.79c-2.5,1-5,2-7.5,2.75,3.94.2,7.89-1,11.82-2.54l-4.32-.21Z"/><path class="cls-1" d="M36.33,591.67l430.36.18L530,604l49.89-.14,11.34-15.06,380.7,3.05,379.27-16.07-35.36,27.42-81,1.59,87.93,8-5.83,5.48-130.64,4.46,137.81,7.82-9.29,42.37-99.57,3,94.26,9.3-10.2,30.09-143,5.85,137.5,3.72L1315.38,763c-409-15.22-849.94-14-1304-6l21.34-47.87,137-3.11-125-3.76-2.16-28.68L85.74,668l-50.19-4,12-6.87,112-3L47,650.38l-2-26,93-7.08L32,616.26Z"/><path class="cls-2" d="M39.35,592.28l430.36.18L533,604.58l49.89-.14,11.34-15.06,380.7,3,379.26-16.07-35.35,27.42-81,1.59,87.92,8L1320,618.8l-130.65,4.46,137.81,7.82-9.28,42.37-99.57,3,94.26,9.3-10.2,30.09-143,5.85,137.49,3.72,21.59,38.2c-409-15.23-849.94-14-1304-6l21.34-47.87,137-3.11-125-3.76-2.16-28.68,43.23-5.58-50.19-4,12-6.87,112-3L50,651l-1.95-26,93-7.08L35,616.87Z"/><path class="cls-2" d="M1351.14,575.75l-379.2,16.06-380.7-3-11.37,15.06L530,604l-63.28-12.13-430.35-.19L32,616.26,138,617.35l-93,7.08L47,650.37l112.6,3.8-112.06,3-12,6.86L85.71,668l-43.22,5.59,2.14,28.69,125,3.75L32.73,709.16,11.39,757c454.07-8,895-9.24,1304,6l-21.67-38.19-137.47-3.72,143-5.86,10.19-30.08-94.26-9.3,99.62-3,9.23-42.36-137.82-7.81,130.65-4.48,5.9-5.47-88-8,81-1.59,35.28-27.42Z"/><path class="cls-3" d="M141.48,706.69l-54.26,1.22q59.78,1.53,119,3.73c95.52,3.55,186.13,8.75,268.31,19.85-54.44,11.13-139,18-214.26,21.9q54.48-.63,108.63-1.11c72.6-5.14,142.85-12,210-20.79-131.29-14.58-285.67-20.75-437.43-24.8Z"/><path class="cls-3" d="M32.42,710l-.65,1.38c2.8,0,5.53,0,7.4,0,39,.6,77.51,1.59,116.14,2.91C233.18,717,303.15,722.1,367,731.92c-39.56,10.9-123.82,15.9-184.23,18.68-18.7.85-108.87,2.84-170.62,4.81L11.4,757q51.24-.9,102.2-1.66l.42,0c102.78-3.28,203.07-9.74,285.69-23-90-17.34-239.8-20.68-367.32-22.4Z"/><path class="cls-3" d="M30.6,714l-.43,1c95.86,1.79,189.17,8,275.38,17-51.88,7.63-114.21,11.89-174.15,15.63-14.17.88-71.6,2.43-117.53,4L12.79,754c113.36-2.48,222.79-8.47,319.36-22-36.7-8.33-107.81-11.45-158.39-13.49-47.7-1.92-95.29-3.31-143.17-4.43Z"/><path class="cls-3" d="M26.73,722.74,16.65,745.28c60.44-1.84,118.28-6.93,172.23-12.93-52.31-4.43-106.63-7.84-162.14-9.61Z"/><path class="cls-3" d="M44.21,696.05l.11,1.52c2.88,0,5.52,0,7.51,0,43.76.72,87,1.6,130.5,2.77,75.61,2,150.78,5.21,224.77,9.07,137.61,7.16,261.48,19.92,405.24,22-74.8,3.14-147.33,6.91-218,13.08-20.39,1.78-39.29,4.71-59.2,6.77l43.86-.09c57.62-4.43,114.93-9,174.37-12.45,93.22-5.33,188.92-4.27,284.72-4.61l250.62-.91c2.57,0,6,0,9.86.09l-2.88-5.22c-230.6,0-467.25,2.94-691.68-10-53.51-3.08-103.2-7.92-156.67-11-54.29-3.17-111.06-4.6-166.65-6.36-78.17-2.47-157.34-3.76-236.46-4.7Z"/><path class="cls-3" d="M1263.08,744c-154,.1-307.5,2.75-459.42,8q57.48.46,114.31,1.25c117-2.29,235.3-2.66,355.07-3.73,5.87-.05,19.16.12,34.85.21l-3.21-5.66q-20.81,0-41.61,0Z"/><path class="cls-3" d="M1297.71,753.52c-81.23.1-162.73.78-243.86,2q52.13,1.08,103.7,2.45l132.22-.68c4.23,0,12.62.1,22.52.21l-2.25-4Z"/><path class="cls-3" d="M1314.14,760.75l-51.68.4c16.15.55,32.31,1.09,48.36,1.69l4.51-.05-1.18-2Z"/><path class="cls-3" d="M43.57,688.46l.11,1.37q26.93.31,53.83.81c108,1.85,218.08,3.56,325.15,7.23,103.23,3.53,195.21,14.86,295.87,19.4,111.44,5,231.39,4.06,344.88,4.47q61.33.22,122.68.16l-29.81-.82,88.78-3.63c-5.89,0-11.78,0-17.69,0-111.79.14-224.06-.17-335.54-2.09-55.82-.95-111.43-2-167-3.49-45.12-1.23-92-6.39-137.27-8.82-179-9.57-360.45-13-544-14.62Z"/><path class="cls-3" d="M238.74,682.5c-42.23,0-84.59.2-127.07.2H43.14l.22,2,48.9.09c117,.22,236.74-1.53,352.15,3.18q78.54,3.21,156.24,7.27c45.56,2.35,89.15,7.85,136.52,10.25,180.78,9.16,375.58,7.29,563,7.08l1.39-4.11c-4.69,0-8.64.09-11,.07L1052,706.78c-100-.74-207,.36-305.3-4.22-50-2.33-94.39-6.65-142.42-10.06-50-3.55-103.3-5.31-155.17-7.14-69.94-2.46-140-2.88-210.39-2.85Z"/><path class="cls-3" d="M971.94,645.67q-75,0-150.34,1.23c-38.62,1.17-75.86,2.89-112.18,6-34.59,3-64.34,8.17-98.65,11-74.18,6.1-155.65,9.1-234.53,11,101.29,1.73,203.8,9.75,297.36,17.86,101.51,8.8,229.69,8.47,337.91,9.86q145.5,1.86,291.37,2.13l1.06-3.25-35-.25q-87.84-.63-175.55-1.75c-111.64-1.23-224.63-3.25-334.79-7.36-96.26-3.59-186.45-14.49-284.18-15.94,73.52-2,133.87-7.32,198-14.77,73.4-8.52,140.19-12,222.84-13,83-1,167.69-1,250.51.61,59.56,1.2,115.54,4.66,172.76,7.16l.32-1.68c-16.06-.59-32.74-1.89-48.36-2.57-49-2.15-98.45-3.76-148.21-4.81q-75.36-1.61-150.34-1.46Z"/><path class="cls-3" d="M961.1,652.24c-122.19,0-261.21,4-345.29,24.6,99.75,15.41,261.71,16.22,381.12,18.28,102.53,1.77,206,1.28,309.06.55l.53-1.52c-33.49,0-67.32-.66-98.55-.89q-91.83-.68-183.6-1.77c-116.77-1.21-243.6-4.44-350.23-15.31C781.45,660,904.21,654,1036,655.17c95.92.83,187.64,4.88,281.07,7.86l.65-3c-10.12-.22-19-.48-24.35-.87-34-2.41-69.41-3.49-105-4.36-67.25-1.64-135.33-2.26-203-2.52-8,0-16.08,0-24.23,0Z"/><path class="cls-3" d="M446.91,673.59l-262.74.4-141.66.23.22,2.2,382.62-.88c7.31-.55,14.43-1.31,21.56-1.95Z"/><path class="cls-3" d="M986.18,639.17c-111.37.07-208.54,1-233.35,2.14-46.52,2.07-95.94,6.08-140.05,9.81-41,3.48-84.13,4.74-128,6-115.25,3.37-234.53,2.25-350.57,2.8l-92.23.43-6.43,3.7,6.22.48q118.89-.12,237.75-.78c102.09-.63,224.55,1.45,318.71-7.81,197-19.37,430.84-16.77,642.26-12.29,27.1.58,53.74,1.52,80.22,2.66l.72-3.37c-80.16-2.89-215.81-3.86-335.24-3.79Z"/><path class="cls-3" d="M986,632.06c-80.88.07-161.41,1-242.46,2.41-95.13,1.63-189.18,5.63-284.19,7.36q-168.57,3.09-337.58,4.66-37.45.38-75,.57l.21,3c192.6.13,386.88,1.29,575.76-6.84,103.51-4.45,203.08-7.69,309.27-8.27,104.52-.56,211.28.91,315.28,3.09,25.13.53,50,1.12,74.74,2l.65-2.93c-24.63-.76-48.5-1.14-57.16-1.36-56.26-1.43-112.39-2.54-169-3.11q-55.44-.57-110.57-.5Z"/><path class="cls-3" d="M918.41,622.39q-89.37,0-178.75.41c-229.48.9-459,.87-688.59,1.18l-6,.45.22,3c196.72,0,393.26.47,590-.52,199.38-1,402.46-5,602-1.32l-43.11-2.45q-48.54-.32-97-.5-89.42-.27-178.79-.23Z"/><path class="cls-3" d="M1318,601.51c-15.25.08-30.44.18-45.68.3-50.84.38-102.39,1.07-152.82,2.5-111.53,3.15-220.44,7-333.19,7.93-113.24,1-227.23-.41-339.3-3.93-108.95-3.43-219.88-4.31-329.84-5.68-27.5-.35-55-.7-82.57-.91l-.54,2.93q122.46-.61,244.83.93C385.13,607,489.14,613,596,614.28c117.2,1.46,232.26,1,349.27-.84,106.13-1.71,209.91-5.32,316.89-5.61l6.43,0-33.62-3,81-1.59,2.13-1.66Z"/><path class="cls-3" d="M1231.78,591.47q-57.22,0-114.44.48-82.15.64-164,2.41c-52.11,1.18-99.52,5.09-151,6.61-73.77,2.18-147.69,2.51-221.77,1.91l-.75,1L530,604l-9.22-1.78c-125.08-1.76-250.32-5.51-374.8-6.92-13-.15-63.76-1-110-1.16l-.64,3.43c82.74.19,165.53.78,247.93,2.22,110,1.94,220.12,7,331.15,8.93,107.8,1.82,206.28.55,310.78-5.09,101.73-5.48,205.65-10,311.09-9.22l90.08.66,4.08-3.16q-30.24-.17-60.49-.32-19.08-.07-38.17-.09Z"/><path class="cls-3" d="M1064.7,661.05c-104.38.22-215.48,2.71-304.45,15.13,101.89,11.31,228.68,11,341.45,12,69.76.61,138.21-.22,207.07-.84l.75-2.21-13.94-1.36c-16.68-.19-33.36-.45-50.51-.77-40.53-.76-81.54,1.17-121.93,1.88-88.69,1.56-193.49-.81-273.88-9.35,94.27-11.42,193.67-15,300.16-9.18,42.68,2.32,80.07,6.4,124.61,7.59l2.36,0,38.5-1.16,1.07-4.72c-76.82-1.75-153.19-7-230.46-7.07Z"/><path class="cls-3" d="M935.28,674.89c75,9.19,174.61,5.82,255,2.6C1108.83,668.43,1020,668.49,935.28,674.89Z"/><path class="cls-3" d="M1224.78,581.11l-88.14,3.73,31.2-.11,172.65-.73,3.54-2.77-71.32-.07c-15.93,0-31.94,0-47.93,0ZM808.26,590.5c-49.83,2.84-100.14,5.31-154.64,5.17-22.69,0-44.89-.4-66.92-.95l-3.86,5.13c90,.76,208.65.42,291.58-6.79q11.63-1,23.16-1.84l-89.32-.72Zm-439.12,1.29c16,1.14,32,2.28,47.94,3.18,27.64,1.57,55.77,2.69,84.08,3.48l-34.42-6.61-97.6-.05Z"/><path class="cls-3" d="M591.24,588.77l-1.72,2.32q17.1.45,34.32.72c32.06.52,72.16-.07,111.42-1.88l-144-1.16Z"/><path class="cls-3" d="M1351.14,575.75l-41.32,1.75c13,0,26.11,0,39.14-.06l2.15-1.69Z"/><path class="cls-4" d="M358.85,707.21c12.09.6,24.06,1.23,36,1.91C383,708.43,371.09,707.78,358.85,707.21ZM403,709.6c56.83,3.42,110.06,7.9,166.76,11.88,74.2,5.2,151.73,8.08,229.27,10-45.71,1.91-89.33,4.84-132.22,8.16,4.17-.28,8.33-.56,12.54-.82,95.54-5.83,195-6.75,293.73-7.77-112.69,0-218.82-1.15-329-6.63-81.41-4-160.16-10.15-241.07-14.83Zm263.79,30c-22.3,1.5-44.08,3.36-65.74,5.33C622.89,743.16,644.76,741.35,666.82,739.65ZM601.08,745c-25.69,2.16-51.36,4.32-77.21,6.39l8.8,0c22.86-2.08,45.57-4.28,68.42-6.36Z"/><path class="cls-4" d="M111.56,707.36l-21.45.5c52.58,1.52,104.88,3.55,156.57,5.59l19.41.75c-10.83-.57-21.65-1.18-32.6-1.84-39-2.36-80.22-3.9-121.93-5Zm155.49,6.89c53.81,2.84,106,5,154.75,10-46.5-5.25-106.55-8-154.73-10Zm156.79,10.17c17.81,2.06,33.5,4.49,45.57,7.39-58.79,8.79-122,16.17-190.66,20.53,72.9-3.85,150.32-9.3,200.32-20.53C461.25,728.77,442.76,726.38,423.84,724.42ZM278.75,752.34c-6.9.36-13.7.73-20.49,1.07l3.33,0q8.63-.48,17.16-1Z"/><path class="cls-4" d="M367,731.93c-52.45-9.1-119.65-13.29-184.31-16.62,57.93,1.58,123,6,170.48,13.32,31.18,4.85,14.53,5.82-16.19,9.33-32.65,3.74-66.72,6.74-101.05,9.71C277.87,744.21,340,740,367,731.93"/><path class="cls-4" d="M305.57,731.93c-57.17-7.47-119.73-12-185.74-14.32a1905.35,1905.35,0,0,1,193.94,14.75C262.83,739,206,743.34,148.5,746.54c54.5-3.7,108-8.36,157.07-14.61"/><path class="cls-4" d="M182.55,732.06c-23.62-.12-78,7.63-98.87,9-21.82,1.47-44.11,2.44-66.59,3.18l-.33.77c60.68-1.72,118.53-5.93,172.12-12.7a59.44,59.44,0,0,0-6.33-.29Z"/><path class="cls-4" d="M188.83,732.36c-45.75-4.27-95.08-8.29-145.4-9,23.85.44,47,1.64,69.87,3.13,21.28,1.38,54.44,6.64,75.53,5.85"/><path class="cls-4" d="M416.14,698.1c58.47,1.37,116.62,4.16,171.44,8.7,49.3,4.08,98.68,10.37,152.12,11.68C628.18,714.15,528.9,702.31,416.14,698.1Z"/><path class="cls-4" d="M457.11,688.12c47,2.31,104,3.2,147.65,7.56,40,4,84.56,8.62,128.82,9.79-39.21-1.45-86.19-3.27-120.07-7.89-42-5.73-108.17-6.77-156.4-9.46"/><path class="cls-4" d="M413.29,676c61.63,2.44,123.37,5.49,182.72,9.79,56.28,4.07,106.89,11.12,168.29,11.6-120.67-4.09-229.07-18.76-351-21.39"/><path class="cls-4" d="M745,687.55c-26.72-1.57-127.79-5.8-116.53-12.84,14.26-8.91,109.1-14.72,145.4-17.27-49.87,2.3-113.54,6.94-145.65,15.92-19.24,5.37,3.45,6.43,29.54,8.9C685.62,684.88,716,686.26,745,687.55Z"/><path class="cls-4" d="M458.35,671.93c65.66-1.59,134.93-4.55,189.84-12.75C596,667.34,520.5,669.52,458.35,671.93Z"/><path class="cls-4" d="M504.81,656.32C600.64,655.82,678.56,643,773.9,641,679.59,643.5,598.47,654,504.81,656.32Z"/><path class="cls-4" d="M760,676.19c53-6.94,113-10.51,173.66-12.93-58.15,1.88-113.12,6.53-163.83,12.71,42.68,5.2,95.71,7,143.34,9C863.79,683.51,802,682.38,760,676.19"/><path class="cls-4" d="M935.28,674.89a817.09,817.09,0,0,1,100.75-5c-32.28.12-65.17,1.65-93,5.2,14.64,1.36,29.48,2.69,45.06,3.47C970.2,678,949.94,677.25,935.28,674.89Z"/><path class="cls-4" d="M346.51,643.43c169.4-1.25,334.48-9.81,503.76-10.84-169.39,2-335,7.69-503.76,10.84"/><path class="cls-4" d="M334.23,607c106.19,4,213.64,7.17,321.51,7.81-108.15.25-216.13-2.92-321.51-7.81"/><path class="cls-4" d="M324,600.93c113.82,4.35,228.38,7.75,344.06,8.67-115-1.66-229.92-5.29-344.06-8.67"/><path class="cls-4" d="M346.53,591.79c14.28.82,28.57,1.62,43.11,2.32,35.42,1.71,71.83,2.88,108.42,3.72l-4.83-.9c-35.77-1.45-71.09-3.3-106.38-5.12l-40.32,0Zm236.78,7.47-.11.16q16.71.21,33.68.21C605.74,599.53,594.53,599.4,583.31,599.26Z"/><path class="cls-4" d="M1134.93,665.56c50.37,3.34,96.75,8.42,150.51,8.67C1233,673,1185.91,668.17,1134.93,665.56Z"/><path class="cls-4" d="M1159.53,684.21c23.87-.83,49.56-2,73.72-1.3C1211.94,680.39,1180.9,682.71,1159.53,684.21Z"/><path class="cls-4" d="M1206.56,658.62c37.54,1,73.39,3.63,110.35,5l.1-.7c-36.13-2.06-73.82-4.27-110.45-4.27Z"/><path class="cls-4" d="M1186.18,642.56c41,1.24,89.4,2,134.37,4l.1-.19c-44.45-1.91-89.3-3.38-134.48-3.79Z"/><path class="cls-4" d="M1149.29,636.49c57.66.83,115.73,2.11,172.55,4.57l.21-1c-57-2.25-115-3.41-172.77-3.57Z"/><path class="cls-4" d="M1120.57,624.46c-3.85,0-7.64,0-11.48,0,33.5,0,67,.28,100.16.91,12.47.24,25.06.44,37.65.68L1227.48,625c-35.57-.47-71.42-.59-106.91-.54Zm-11.48,0c-26.28,0-52.54.09-78.6.3C1056.3,624.68,1082.6,624.56,1109.09,624.5Z"/><path class="cls-4" d="M813.13,590.54c-14.49,1-29,2-43.54,2.75,22.88.2,45.83-.95,68.63-2.54l-25.08-.21Z"/></svg>