<svg width="204" height="934" viewBox="0 0 204 934" fill="none" xmlns="http://www.w3.org/2000/svg">
<g filter="url(#filter0_d)">
<rect x="22" y="18" width="160" height="890" rx="55" fill="white"/>
</g>
<path d="M83.15 90.36C87.5 90.36 90.86 87.93 90.86 84.39C90.86 79.92 85.46 78.57 83.45 78.18C81.38 77.76 78.5 76.89 78.5 74.61C78.5 72.72 80.42 71.4 83.03 71.4C85.34 71.4 87.47 72.39 88.55 73.59L89.87 71.55C88.43 69.99 85.97 68.94 83.06 68.94C78.74 68.94 75.68 71.25 75.68 74.7C75.68 78.36 79.19 80.04 82.67 80.79C84.65 81.24 88.04 81.96 88.04 84.51C88.04 86.52 85.88 87.9 83.15 87.9C80.54 87.9 78.05 86.67 76.49 85.02L75.02 87.09C76.94 89.1 80.06 90.36 83.15 90.36ZM102.765 90H106.185L99.1046 81.93L105.975 74.7H102.615L95.2946 82.47V68.4H92.7146V90H95.2946V85.95L97.2746 83.85L102.765 90ZM108.566 71.64C109.526 71.64 110.276 70.89 110.276 69.93C110.276 68.94 109.526 68.22 108.566 68.22C107.576 68.22 106.826 68.94 106.826 69.93C106.826 70.89 107.576 71.64 108.566 71.64ZM107.276 90H109.856V74.7H107.276V90ZM121.12 74.34C118.72 74.34 116.8 75.3 115.6 77.04V74.7H113.02V90H115.6V81.42C115.6 78.66 117.46 76.83 120.28 76.83C123.01 76.83 124.75 78.63 124.75 81.36V90H127.33V80.55C127.33 76.8 124.84 74.34 121.12 74.34Z" fill="black"/>
<circle cx="102" cy="161" r="40" fill="#FBC666"/>
<circle cx="102" cy="272" r="40" fill="#FB7F7D"/>
<circle cx="102" cy="383" r="40" fill="#F6ACF8"/>
<circle cx="102" cy="494" r="40" fill="#62D0DA"/>
<circle cx="102" cy="605" r="40" fill="#FBC666"/>
<circle cx="102" cy="716" r="40" fill="#FB7F7D"/>
<circle cx="102" cy="827" r="40" fill="#4AA67B"/>
<defs>
<filter id="filter0_d" x="0" y="0" width="204" height="934" filterUnits="userSpaceOnUse" color-interpolation-filters="sRGB">
<feFlood flood-opacity="0" result="BackgroundImageFix"/>
<feColorMatrix in="SourceAlpha" type="matrix" values="0 0 0 0 0 0 0 0 0 0 0 0 0 0 0 0 0 0 127 0"/>
<feMorphology radius="6" operator="dilate" in="SourceAlpha" result="effect1_dropShadow"/>
<feOffset dy="4"/>
<feGaussianBlur stdDeviation="8"/>
<feColorMatrix type="matrix" values="0 0 0 0 0 0 0 0 0 0 0 0 0 0 0 0 0 0 0.1 0"/>
<feBlend mode="normal" in2="BackgroundImageFix" result="effect1_dropShadow"/>
<feBlend mode="normal" in="SourceGraphic" in2="effect1_dropShadow" result="shape"/>
</filter>
</defs>
</svg>
