<svg width="686" height="261" viewBox="0 0 686 261" fill="none" xmlns="http://www.w3.org/2000/svg">
<path d="M103.8 88.4V56H12.4V194H46.8V142.4H96.2V110H46.8V88.4H103.8ZM147.589 161.6V56H113.189V194H202.589V161.6H147.589ZM270.222 196.4C312.022 196.4 343.422 165.6 343.422 125C343.422 84.4 312.022 53.6 270.222 53.6C228.622 53.6 197.222 84.4 197.222 125C197.222 165.6 228.622 196.4 270.222 196.4ZM270.222 163.2C248.822 163.2 232.422 146.8 232.422 125C232.422 103.2 248.822 86.8 270.222 86.8C291.822 86.8 308.222 103.2 308.222 125C308.222 146.8 291.822 163.2 270.222 163.2Z" fill="#D93300"/>
<path d="M443.634 194H454.234L402.634 133.4H412.834C435.034 133.4 452.034 116.8 452.034 94.8C452.034 72.8 435.034 56 412.834 56H359.834V194H368.434V133.4H392.434L443.634 194ZM368.434 64H412.634C430.034 64 443.034 77.2 443.034 94.8C443.034 112.6 430.034 125.8 412.634 125.8H368.434V64ZM541.319 121C552.519 116.6 561.719 104.6 561.719 90C561.719 70.4 546.919 56 527.519 56H473.319V194H532.319C553.719 194 569.519 178 569.519 157C569.519 139 558.119 124.6 541.319 121ZM525.919 63.8C541.319 63.8 552.919 75.4 552.919 91C552.919 106.6 540.519 118.4 525.919 118.4H481.719V63.8H525.919ZM530.919 186.2H481.719V125.8H530.919C547.919 125.8 560.719 138.8 560.719 155.8C560.719 173 547.919 186.2 530.919 186.2ZM629.375 196.4C656.775 196.4 678.175 181 678.175 158.8C678.175 131 644.175 122.2 629.775 119.6C615.175 116.8 590.975 109.8 590.975 89.6C590.975 73 606.975 61.4 628.175 61.4C645.175 61.4 659.775 68.8 666.575 77.4L671.175 71.2C661.975 60.4 646.375 53.6 628.175 53.6C601.975 53.6 582.175 68 582.175 90C582.175 114.2 607.575 123.8 627.375 127.8C639.575 130.4 669.375 136.4 669.375 159.2C669.375 176.6 651.775 188.6 629.375 188.6C609.975 188.6 593.175 179.8 583.375 168.4L578.575 174.6C590.175 188 609.175 196.4 629.375 196.4Z" fill="#B58171"/>
<circle cx="271" cy="127" r="67" fill="#D93300"/>
<circle cx="249.842" cy="104.432" r="21.8632" fill="white"/>
<circle cx="293.568" cy="112.895" r="21.8632" fill="white"/>
<circle cx="245.611" cy="100.2" r="10.5789" fill="#C4C4C4"/>
<circle cx="296.39" cy="118.537" r="10.5789" fill="#C4C4C4"/>
</svg>
